<svg width="359" height="194" viewBox="0 0 359 194" fill="none" xmlns="http://www.w3.org/2000/svg">
<g opacity="0.2" filter="url(#filter0_d_414_5124)">
<rect x="22" y="12" width="315" height="150" rx="20" fill="url(#paint0_linear_414_5124)"/>
</g>
<path d="M49.56 36.66V45H48.192V41.352H44.268V45H42.9V36.66H44.268V40.236H48.192V36.66H49.56ZM57.4209 41.532C57.4209 41.78 57.4049 42.004 57.3729 42.204H52.3209C52.3609 42.732 52.5569 43.156 52.9089 43.476C53.2609 43.796 53.6929 43.956 54.2049 43.956C54.9409 43.956 55.4609 43.648 55.7649 43.032H57.2409C57.0409 43.64 56.6769 44.14 56.1489 44.532C55.6289 44.916 54.9809 45.108 54.2049 45.108C53.5729 45.108 53.0049 44.968 52.5009 44.688C52.0049 44.4 51.6129 44 51.3249 43.488C51.0449 42.968 50.9049 42.368 50.9049 41.688C50.9049 41.008 51.0409 40.412 51.3129 39.9C51.5929 39.38 51.9809 38.98 52.4769 38.7C52.9809 38.42 53.5569 38.28 54.2049 38.28C54.8289 38.28 55.3849 38.416 55.8729 38.688C56.3609 38.96 56.7409 39.344 57.0129 39.84C57.2849 40.328 57.4209 40.892 57.4209 41.532ZM55.9929 41.1C55.9849 40.596 55.8049 40.192 55.4529 39.888C55.1009 39.584 54.6649 39.432 54.1449 39.432C53.6729 39.432 53.2689 39.584 52.9329 39.888C52.5969 40.184 52.3969 40.588 52.3329 41.1H55.9929ZM58.3112 41.664C58.3112 41 58.4472 40.412 58.7192 39.9C58.9992 39.388 59.3752 38.992 59.8472 38.712C60.3272 38.424 60.8552 38.28 61.4312 38.28C61.9512 38.28 62.4032 38.384 62.7872 38.592C63.1792 38.792 63.4912 39.044 63.7232 39.348V38.388H65.1032V45H63.7232V44.016C63.4912 44.328 63.1752 44.588 62.7752 44.796C62.3752 45.004 61.9192 45.108 61.4072 45.108C60.8392 45.108 60.3192 44.964 59.8472 44.676C59.3752 44.38 58.9992 43.972 58.7192 43.452C58.4472 42.924 58.3112 42.328 58.3112 41.664ZM63.7232 41.688C63.7232 41.232 63.6272 40.836 63.4352 40.5C63.2512 40.164 63.0072 39.908 62.7032 39.732C62.3992 39.556 62.0712 39.468 61.7192 39.468C61.3672 39.468 61.0392 39.556 60.7352 39.732C60.4312 39.9 60.1832 40.152 59.9912 40.488C59.8072 40.816 59.7152 41.208 59.7152 41.664C59.7152 42.12 59.8072 42.52 59.9912 42.864C60.1832 43.208 60.4312 43.472 60.7352 43.656C61.0472 43.832 61.3752 43.92 61.7192 43.92C62.0712 43.92 62.3992 43.832 62.7032 43.656C63.0072 43.48 63.2512 43.224 63.4352 42.888C63.6272 42.544 63.7232 42.144 63.7232 41.688ZM68.268 39.348C68.468 39.012 68.732 38.752 69.06 38.568C69.396 38.376 69.792 38.28 70.248 38.28V39.696H69.9C69.364 39.696 68.956 39.832 68.676 40.104C68.404 40.376 68.268 40.848 68.268 41.52V45H66.9V38.388H68.268V39.348ZM73.1015 39.504V43.164C73.1015 43.412 73.1575 43.592 73.2695 43.704C73.3895 43.808 73.5895 43.86 73.8695 43.86H74.7095V45H73.6295C73.0135 45 72.5415 44.856 72.2135 44.568C71.8855 44.28 71.7215 43.812 71.7215 43.164V39.504H70.9415V38.388H71.7215V36.744H73.1015V38.388H74.7095V39.504H73.1015ZM83.4195 45L81.4995 41.664H80.4555V45H79.0875V36.66H81.9675C82.6075 36.66 83.1475 36.772 83.5875 36.996C84.0355 37.22 84.3675 37.52 84.5835 37.896C84.8075 38.272 84.9195 38.692 84.9195 39.156C84.9195 39.7 84.7595 40.196 84.4395 40.644C84.1275 41.084 83.6435 41.384 82.9875 41.544L85.0515 45H83.4195ZM80.4555 40.572H81.9675C82.4795 40.572 82.8635 40.444 83.1195 40.188C83.3835 39.932 83.5155 39.588 83.5155 39.156C83.5155 38.724 83.3875 38.388 83.1315 38.148C82.8755 37.9 82.4875 37.776 81.9675 37.776H80.4555V40.572ZM86.2135 41.664C86.2135 41 86.3495 40.412 86.6215 39.9C86.9015 39.388 87.2775 38.992 87.7495 38.712C88.2295 38.424 88.7575 38.28 89.3335 38.28C89.8535 38.28 90.3055 38.384 90.6895 38.592C91.0815 38.792 91.3935 39.044 91.6255 39.348V38.388H93.0055V45H91.6255V44.016C91.3935 44.328 91.0775 44.588 90.6775 44.796C90.2775 45.004 89.8215 45.108 89.3095 45.108C88.7415 45.108 88.2215 44.964 87.7495 44.676C87.2775 44.38 86.9015 43.972 86.6215 43.452C86.3495 42.924 86.2135 42.328 86.2135 41.664ZM91.6255 41.688C91.6255 41.232 91.5295 40.836 91.3375 40.5C91.1535 40.164 90.9095 39.908 90.6055 39.732C90.3015 39.556 89.9735 39.468 89.6215 39.468C89.2695 39.468 88.9415 39.556 88.6375 39.732C88.3335 39.9 88.0855 40.152 87.8935 40.488C87.7095 40.816 87.6175 41.208 87.6175 41.664C87.6175 42.12 87.7095 42.52 87.8935 42.864C88.0855 43.208 88.3335 43.472 88.6375 43.656C88.9495 43.832 89.2775 43.92 89.6215 43.92C89.9735 43.92 90.3015 43.832 90.6055 43.656C90.9095 43.48 91.1535 43.224 91.3375 42.888C91.5295 42.544 91.6255 42.144 91.6255 41.688ZM96.3983 39.504V43.164C96.3983 43.412 96.4543 43.592 96.5663 43.704C96.6863 43.808 96.8863 43.86 97.1663 43.86H98.0063V45H96.9263C96.3103 45 95.8383 44.856 95.5103 44.568C95.1823 44.28 95.0183 43.812 95.0183 43.164V39.504H94.2383V38.388H95.0183V36.744H96.3983V38.388H98.0063V39.504H96.3983ZM105.327 41.532C105.327 41.78 105.311 42.004 105.279 42.204H100.227C100.267 42.732 100.463 43.156 100.815 43.476C101.167 43.796 101.599 43.956 102.111 43.956C102.847 43.956 103.367 43.648 103.671 43.032H105.147C104.947 43.64 104.583 44.14 104.055 44.532C103.535 44.916 102.887 45.108 102.111 45.108C101.479 45.108 100.911 44.968 100.407 44.688C99.9112 44.4 99.5192 44 99.2312 43.488C98.9512 42.968 98.8112 42.368 98.8112 41.688C98.8112 41.008 98.9472 40.412 99.2192 39.9C99.4992 39.38 99.8872 38.98 100.383 38.7C100.887 38.42 101.463 38.28 102.111 38.28C102.735 38.28 103.291 38.416 103.779 38.688C104.267 38.96 104.647 39.344 104.919 39.84C105.191 40.328 105.327 40.892 105.327 41.532ZM103.899 41.1C103.891 40.596 103.711 40.192 103.359 39.888C103.007 39.584 102.571 39.432 102.051 39.432C101.579 39.432 101.175 39.584 100.839 39.888C100.503 40.184 100.303 40.588 100.239 41.1H103.899Z" fill="#1D1617"/>
<path d="M49.238 61.278L45.514 70H43.526L47.278 61.502H42.49V59.822H49.238V61.278ZM52.1199 64.596C51.1866 64.1107 50.7199 63.3593 50.7199 62.342C50.7199 61.838 50.8459 61.3807 51.0979 60.97C51.3593 60.55 51.7466 60.2187 52.2599 59.976C52.7826 59.724 53.4173 59.598 54.1639 59.598C54.9106 59.598 55.5406 59.724 56.0539 59.976C56.5766 60.2187 56.9639 60.55 57.2159 60.97C57.4773 61.3807 57.6079 61.838 57.6079 62.342C57.6079 62.8553 57.4819 63.308 57.2299 63.7C56.9779 64.0827 56.6419 64.3813 56.2219 64.596C56.7353 64.82 57.1366 65.1467 57.4259 65.576C57.7153 66.0053 57.8599 66.514 57.8599 67.102C57.8599 67.7367 57.6966 68.292 57.3699 68.768C57.0526 69.2347 56.6139 69.594 56.0539 69.846C55.4939 70.098 54.8639 70.224 54.1639 70.224C53.4639 70.224 52.8339 70.098 52.2739 69.846C51.7233 69.594 51.2846 69.2347 50.9579 68.768C50.6406 68.292 50.4819 67.7367 50.4819 67.102C50.4819 66.514 50.6266 66.0053 50.9159 65.576C51.2053 65.1373 51.6066 64.8107 52.1199 64.596ZM55.7039 62.622C55.7039 62.1647 55.5639 61.81 55.2839 61.558C55.0133 61.306 54.6399 61.18 54.1639 61.18C53.6973 61.18 53.3239 61.306 53.0439 61.558C52.7733 61.81 52.6379 62.1693 52.6379 62.636C52.6379 63.056 52.7779 63.392 53.0579 63.644C53.3473 63.896 53.7159 64.022 54.1639 64.022C54.6119 64.022 54.9806 63.896 55.2699 63.644C55.5593 63.3827 55.7039 63.042 55.7039 62.622ZM54.1639 65.45C53.6319 65.45 53.1979 65.5853 52.8619 65.856C52.5353 66.1267 52.3719 66.514 52.3719 67.018C52.3719 67.4847 52.5306 67.8673 52.8479 68.166C53.1746 68.4553 53.6133 68.6 54.1639 68.6C54.7146 68.6 55.1486 68.4507 55.4659 68.152C55.7833 67.8533 55.9419 67.4753 55.9419 67.018C55.9419 66.5233 55.7786 66.1407 55.4519 65.87C55.1253 65.59 54.6959 65.45 54.1639 65.45ZM68.512 64.988C69.0626 65.0907 69.5153 65.366 69.87 65.814C70.2246 66.262 70.402 66.7753 70.402 67.354C70.402 67.8767 70.2713 68.3387 70.01 68.74C69.758 69.132 69.3893 69.44 68.904 69.664C68.4186 69.888 67.8446 70 67.182 70H62.968V60.228H67C67.6626 60.228 68.232 60.3353 68.708 60.55C69.1933 60.7647 69.5573 61.0633 69.8 61.446C70.052 61.8287 70.178 62.2627 70.178 62.748C70.178 63.3173 70.024 63.7933 69.716 64.176C69.4173 64.5587 69.016 64.8293 68.512 64.988ZM64.928 64.26H66.72C67.1866 64.26 67.546 64.1573 67.798 63.952C68.05 63.7373 68.176 63.434 68.176 63.042C68.176 62.65 68.05 62.3467 67.798 62.132C67.546 61.9173 67.1866 61.81 66.72 61.81H64.928V64.26ZM66.902 68.404C67.378 68.404 67.7466 68.292 68.008 68.068C68.2786 67.844 68.414 67.5267 68.414 67.116C68.414 66.696 68.274 66.3693 67.994 66.136C67.714 65.8933 67.336 65.772 66.86 65.772H64.928V68.404H66.902ZM79.09 63.252C79.09 63.7747 78.964 64.2647 78.712 64.722C78.4694 65.1793 78.082 65.548 77.55 65.828C77.0274 66.108 76.3647 66.248 75.562 66.248H73.924V70H71.964V60.228H75.562C76.318 60.228 76.962 60.3587 77.494 60.62C78.026 60.8813 78.4227 61.2407 78.684 61.698C78.9547 62.1553 79.09 62.6733 79.09 63.252ZM75.478 64.666C76.0194 64.666 76.4207 64.5447 76.682 64.302C76.9434 64.05 77.074 63.7 77.074 63.252C77.074 62.3 76.542 61.824 75.478 61.824H73.924V64.666H75.478ZM91.1356 60.228V70H89.1756V63.644L86.5576 70H85.0736L82.4416 63.644V70H80.4816V60.228H82.7076L85.8156 67.494L88.9236 60.228H91.1356Z" fill="url(#paint1_linear_414_5124)"/>
<path opacity="0.2" d="M22 127.5L29.5 120L34.5 127.5L38 123H40.5L49.5 111.5L52.5 123L55 117H57.5L63 99.5L69.5 117H73.5L75.5 111.5L85 127.5L90 117H97L102 97.5L105 117H111.5L113 113H117L119.5 108L121 106L124 108L126 103L135.5 84.5L143.5 103H147.5L152.5 108L160 103H170.5L179.5 72L186 103H188L189.5 100H191.5L193 98.5L194 96.5L196.5 99.5L199 103H204L209.5 98.5L211.5 103L217.5 83L224.5 103H227V99.5L234 114V100H243L251 124.5L255 100H265.5L268.5 97.5L270.5 100L273 97.5L279.5 106L285 110V113L293.5 127.5L300 103H309L313 93.5L316 96.5L318.5 84.5L329.5 106H337" stroke="url(#paint2_linear_414_5124)" stroke-width="1.2" stroke-linecap="round" stroke-linejoin="round"/>
<path d="M22 127.5L29.5 120L34.5 127.5L38 123H40.5L49.5 111.5L52.5 123L55 117H57.5L63 99.5L69.5 117H73.5L75.5 111.5L85 127.5L90 117H97L102 97.5L105 117H111.5L113 113H117L119.5 108L121 106L124 108L126 103L135.5 84.5L143.5 103H147.5L152.5 108L160 103H170.5L179.5 72L186 103H188L189.5 100H191.5L193 98.5L194 96.5L196.5 99.5L199 103H204L209.5 98.5L211.5 103L217.5 83" stroke="url(#paint3_linear_414_5124)" stroke-width="1.5" stroke-linecap="round" stroke-linejoin="round"/>
<path opacity="0.5" d="M29.5 120L22 127.5V133.5H217.5V83L211.5 103L209.5 98.5L204 103H199L196.5 99.5L194 96.5L193 98.5L191.5 100H189.5L188 103H186L179.5 72L170.5 103H160L152.5 108L147.5 103H143.5L135.5 84.5L126 103L124 108L121 106L119.5 108L117 113H113L111.5 117H105L102 97.5L97 117H90L85 127.5L75.5 111.5L73.5 117H69.5L63 99.5L57.5 117H55L52.5 123L49.5 111.5L40.5 123H38L34.5 127.5L29.5 120Z" fill="url(#paint4_linear_414_5124)"/>
<path d="M218.866 74.5C218.481 75.1667 217.519 75.1667 217.134 74.5L214.536 70C214.151 69.3333 214.632 68.5 215.402 68.5L220.598 68.5C221.368 68.5 221.849 69.3333 221.464 70L218.866 74.5Z" fill="url(#paint5_linear_414_5124)"/>
<g filter="url(#filter1_d_414_5124)">
<rect x="181" y="46" width="73" height="25" rx="12.5" fill="url(#paint6_linear_414_5124)"/>
</g>
<path d="M191.6 56.59C191.647 55.9767 191.883 55.4967 192.31 55.15C192.737 54.8033 193.29 54.63 193.97 54.63C194.423 54.63 194.813 54.7133 195.14 54.88C195.473 55.04 195.723 55.26 195.89 55.54C196.063 55.82 196.15 56.1367 196.15 56.49C196.15 56.9033 196.03 57.26 195.79 57.56C195.557 57.86 195.25 58.0533 194.87 58.14V58.19C195.303 58.2967 195.647 58.5067 195.9 58.82C196.153 59.1333 196.28 59.5433 196.28 60.05C196.28 60.43 196.193 60.7733 196.02 61.08C195.847 61.38 195.587 61.6167 195.24 61.79C194.893 61.9633 194.477 62.05 193.99 62.05C193.283 62.05 192.703 61.8667 192.25 61.5C191.797 61.1267 191.543 60.6 191.49 59.92H192.37C192.417 60.32 192.58 60.6467 192.86 60.9C193.14 61.1533 193.513 61.28 193.98 61.28C194.447 61.28 194.8 61.16 195.04 60.92C195.287 60.6733 195.41 60.3567 195.41 59.97C195.41 59.47 195.243 59.11 194.91 58.89C194.577 58.67 194.073 58.56 193.4 58.56H193.17V57.8H193.41C194.023 57.7933 194.487 57.6933 194.8 57.5C195.113 57.3 195.27 56.9933 195.27 56.58C195.27 56.2267 195.153 55.9433 194.92 55.73C194.693 55.5167 194.367 55.41 193.94 55.41C193.527 55.41 193.193 55.5167 192.94 55.73C192.687 55.9433 192.537 56.23 192.49 56.59H191.6ZM204.249 56.42C204.675 56.42 205.055 56.51 205.389 56.69C205.722 56.8633 205.985 57.1267 206.179 57.48C206.372 57.8333 206.469 58.2633 206.469 58.77V62H205.569V58.9C205.569 58.3533 205.432 57.9367 205.159 57.65C204.892 57.3567 204.529 57.21 204.069 57.21C203.595 57.21 203.219 57.3633 202.939 57.67C202.659 57.97 202.519 58.4067 202.519 58.98V62H201.619V58.9C201.619 58.3533 201.482 57.9367 201.209 57.65C200.942 57.3567 200.579 57.21 200.119 57.21C199.645 57.21 199.269 57.3633 198.989 57.67C198.709 57.97 198.569 58.4067 198.569 58.98V62H197.659V56.52H198.569V57.31C198.749 57.0233 198.989 56.8033 199.289 56.65C199.595 56.4967 199.932 56.42 200.299 56.42C200.759 56.42 201.165 56.5233 201.519 56.73C201.872 56.9367 202.135 57.24 202.309 57.64C202.462 57.2533 202.715 56.9533 203.069 56.74C203.422 56.5267 203.815 56.42 204.249 56.42ZM208.431 55.63C208.258 55.63 208.111 55.57 207.991 55.45C207.871 55.33 207.811 55.1833 207.811 55.01C207.811 54.8367 207.871 54.69 207.991 54.57C208.111 54.45 208.258 54.39 208.431 54.39C208.598 54.39 208.738 54.45 208.851 54.57C208.971 54.69 209.031 54.8367 209.031 55.01C209.031 55.1833 208.971 55.33 208.851 55.45C208.738 55.57 208.598 55.63 208.431 55.63ZM208.871 56.52V62H207.961V56.52H208.871ZM213.092 56.42C213.759 56.42 214.299 56.6233 214.712 57.03C215.126 57.43 215.332 58.01 215.332 58.77V62H214.432V58.9C214.432 58.3533 214.296 57.9367 214.022 57.65C213.749 57.3567 213.376 57.21 212.902 57.21C212.422 57.21 212.039 57.36 211.752 57.66C211.472 57.96 211.332 58.3967 211.332 58.97V62H210.422V56.52H211.332V57.3C211.512 57.02 211.756 56.8033 212.062 56.65C212.376 56.4967 212.719 56.42 213.092 56.42ZM218.759 62.09C218.339 62.09 217.962 62.02 217.629 61.88C217.295 61.7333 217.032 61.5333 216.839 61.28C216.645 61.02 216.539 60.7233 216.519 60.39H217.459C217.485 60.6633 217.612 60.8867 217.839 61.06C218.072 61.2333 218.375 61.32 218.749 61.32C219.095 61.32 219.369 61.2433 219.569 61.09C219.769 60.9367 219.869 60.7433 219.869 60.51C219.869 60.27 219.762 60.0933 219.549 59.98C219.335 59.86 219.005 59.7433 218.559 59.63C218.152 59.5233 217.819 59.4167 217.559 59.31C217.305 59.1967 217.085 59.0333 216.899 58.82C216.719 58.6 216.629 58.3133 216.629 57.96C216.629 57.68 216.712 57.4233 216.879 57.19C217.045 56.9567 217.282 56.7733 217.589 56.64C217.895 56.5 218.245 56.43 218.639 56.43C219.245 56.43 219.735 56.5833 220.109 56.89C220.482 57.1967 220.682 57.6167 220.709 58.15H219.799C219.779 57.8633 219.662 57.6333 219.449 57.46C219.242 57.2867 218.962 57.2 218.609 57.2C218.282 57.2 218.022 57.27 217.829 57.41C217.635 57.55 217.539 57.7333 217.539 57.96C217.539 58.14 217.595 58.29 217.709 58.41C217.829 58.5233 217.975 58.6167 218.149 58.69C218.329 58.7567 218.575 58.8333 218.889 58.92C219.282 59.0267 219.602 59.1333 219.849 59.24C220.095 59.34 220.305 59.4933 220.479 59.7C220.659 59.9067 220.752 60.1767 220.759 60.51C220.759 60.81 220.675 61.08 220.509 61.32C220.342 61.56 220.105 61.75 219.799 61.89C219.499 62.0233 219.152 62.09 218.759 62.09ZM224.369 59.24C224.369 58.68 224.483 58.19 224.709 57.77C224.936 57.3433 225.246 57.0133 225.639 56.78C226.039 56.5467 226.483 56.43 226.969 56.43C227.449 56.43 227.866 56.5333 228.219 56.74C228.573 56.9467 228.836 57.2067 229.009 57.52V56.52H229.929V62H229.009V60.98C228.829 61.3 228.559 61.5667 228.199 61.78C227.846 61.9867 227.433 62.09 226.959 62.09C226.473 62.09 226.033 61.97 225.639 61.73C225.246 61.49 224.936 61.1533 224.709 60.72C224.483 60.2867 224.369 59.7933 224.369 59.24ZM229.009 59.25C229.009 58.8367 228.926 58.4767 228.759 58.17C228.593 57.8633 228.366 57.63 228.079 57.47C227.799 57.3033 227.489 57.22 227.149 57.22C226.809 57.22 226.499 57.3 226.219 57.46C225.939 57.62 225.716 57.8533 225.549 58.16C225.383 58.4667 225.299 58.8267 225.299 59.24C225.299 59.66 225.383 60.0267 225.549 60.34C225.716 60.6467 225.939 60.8833 226.219 61.05C226.499 61.21 226.809 61.29 227.149 61.29C227.489 61.29 227.799 61.21 228.079 61.05C228.366 60.8833 228.593 60.6467 228.759 60.34C228.926 60.0267 229.009 59.6633 229.009 59.25ZM233.727 56.43C234.201 56.43 234.614 56.5333 234.967 56.74C235.327 56.9467 235.594 57.2067 235.767 57.52V56.52H236.687V62.12C236.687 62.62 236.581 63.0633 236.367 63.45C236.154 63.8433 235.847 64.15 235.447 64.37C235.054 64.59 234.594 64.7 234.067 64.7C233.347 64.7 232.747 64.53 232.267 64.19C231.787 63.85 231.504 63.3867 231.417 62.8H232.317C232.417 63.1333 232.624 63.4 232.937 63.6C233.251 63.8067 233.627 63.91 234.067 63.91C234.567 63.91 234.974 63.7533 235.287 63.44C235.607 63.1267 235.767 62.6867 235.767 62.12V60.97C235.587 61.29 235.321 61.5567 234.967 61.77C234.614 61.9833 234.201 62.09 233.727 62.09C233.241 62.09 232.797 61.97 232.397 61.73C232.004 61.49 231.694 61.1533 231.467 60.72C231.241 60.2867 231.127 59.7933 231.127 59.24C231.127 58.68 231.241 58.19 231.467 57.77C231.694 57.3433 232.004 57.0133 232.397 56.78C232.797 56.5467 233.241 56.43 233.727 56.43ZM235.767 59.25C235.767 58.8367 235.684 58.4767 235.517 58.17C235.351 57.8633 235.124 57.63 234.837 57.47C234.557 57.3033 234.247 57.22 233.907 57.22C233.567 57.22 233.257 57.3 232.977 57.46C232.697 57.62 232.474 57.8533 232.307 58.16C232.141 58.4667 232.057 58.8267 232.057 59.24C232.057 59.66 232.141 60.0267 232.307 60.34C232.474 60.6467 232.697 60.8833 232.977 61.05C233.257 61.21 233.567 61.29 233.907 61.29C234.247 61.29 234.557 61.21 234.837 61.05C235.124 60.8833 235.351 60.6467 235.517 60.34C235.684 60.0267 235.767 59.6633 235.767 59.25ZM240.615 62.09C240.102 62.09 239.635 61.9733 239.215 61.74C238.802 61.5067 238.475 61.1767 238.235 60.75C238.002 60.3167 237.885 59.8167 237.885 59.25C237.885 58.69 238.005 58.1967 238.245 57.77C238.492 57.3367 238.825 57.0067 239.245 56.78C239.665 56.5467 240.135 56.43 240.655 56.43C241.175 56.43 241.645 56.5467 242.065 56.78C242.485 57.0067 242.815 57.3333 243.055 57.76C243.302 58.1867 243.425 58.6833 243.425 59.25C243.425 59.8167 243.298 60.3167 243.045 60.75C242.798 61.1767 242.462 61.5067 242.035 61.74C241.608 61.9733 241.135 62.09 240.615 62.09ZM240.615 61.29C240.942 61.29 241.248 61.2133 241.535 61.06C241.822 60.9067 242.052 60.6767 242.225 60.37C242.405 60.0633 242.495 59.69 242.495 59.25C242.495 58.81 242.408 58.4367 242.235 58.13C242.062 57.8233 241.835 57.5967 241.555 57.45C241.275 57.2967 240.972 57.22 240.645 57.22C240.312 57.22 240.005 57.2967 239.725 57.45C239.452 57.5967 239.232 57.8233 239.065 58.13C238.898 58.4367 238.815 58.81 238.815 59.25C238.815 59.6967 238.895 60.0733 239.055 60.38C239.222 60.6867 239.442 60.9167 239.715 61.07C239.988 61.2167 240.288 61.29 240.615 61.29Z" fill="white"/>
<circle cx="217.5" cy="83.5" r="1.9" fill="white" stroke="url(#paint7_linear_414_5124)" stroke-width="1.2"/>
<defs>
<filter id="filter0_d_414_5124" x="0" y="0" width="359" height="194" filterUnits="userSpaceOnUse" color-interpolation-filters="sRGB">
<feFlood flood-opacity="0" result="BackgroundImageFix"/>
<feColorMatrix in="SourceAlpha" type="matrix" values="0 0 0 0 0 0 0 0 0 0 0 0 0 0 0 0 0 0 127 0" result="hardAlpha"/>
<feOffset dy="10"/>
<feGaussianBlur stdDeviation="11"/>
<feColorMatrix type="matrix" values="0 0 0 0 0.584314 0 0 0 0 0.678431 0 0 0 0 0.996078 0 0 0 0.3 0"/>
<feBlend mode="normal" in2="BackgroundImageFix" result="effect1_dropShadow_414_5124"/>
<feBlend mode="normal" in="SourceGraphic" in2="effect1_dropShadow_414_5124" result="shape"/>
</filter>
<filter id="filter1_d_414_5124" x="159" y="34" width="117" height="69" filterUnits="userSpaceOnUse" color-interpolation-filters="sRGB">
<feFlood flood-opacity="0" result="BackgroundImageFix"/>
<feColorMatrix in="SourceAlpha" type="matrix" values="0 0 0 0 0 0 0 0 0 0 0 0 0 0 0 0 0 0 127 0" result="hardAlpha"/>
<feOffset dy="10"/>
<feGaussianBlur stdDeviation="11"/>
<feColorMatrix type="matrix" values="0 0 0 0 0.772549 0 0 0 0 0.545098 0 0 0 0 0.94902 0 0 0 0.3 0"/>
<feBlend mode="normal" in2="BackgroundImageFix" result="effect1_dropShadow_414_5124"/>
<feBlend mode="normal" in="SourceGraphic" in2="effect1_dropShadow_414_5124" result="shape"/>
</filter>
<linearGradient id="paint0_linear_414_5124" x1="337" y1="162" x2="-74.4781" y2="95.1348" gradientUnits="userSpaceOnUse">
<stop stop-color="#92A3FD"/>
<stop offset="1" stop-color="#9DCEFF"/>
</linearGradient>
<linearGradient id="paint1_linear_414_5124" x1="93" y1="76" x2="26.953" y2="63.5881" gradientUnits="userSpaceOnUse">
<stop stop-color="#92A3FD"/>
<stop offset="1" stop-color="#9DCEFF"/>
</linearGradient>
<linearGradient id="paint2_linear_414_5124" x1="337" y1="127.5" x2="-17.0517" y2="-27.9957" gradientUnits="userSpaceOnUse">
<stop stop-color="#92A3FD"/>
<stop offset="1" stop-color="#9DCEFF"/>
</linearGradient>
<linearGradient id="paint3_linear_414_5124" x1="217.5" y1="127.5" x2="-26.4931" y2="60.9933" gradientUnits="userSpaceOnUse">
<stop stop-color="#92A3FD"/>
<stop offset="1" stop-color="#9DCEFF"/>
</linearGradient>
<linearGradient id="paint4_linear_414_5124" x1="119.75" y1="72" x2="119.75" y2="152" gradientUnits="userSpaceOnUse">
<stop stop-color="#93A7FE"/>
<stop offset="1" stop-color="white" stop-opacity="0"/>
</linearGradient>
<linearGradient id="paint5_linear_414_5124" x1="213" y1="66" x2="226.328" y2="67.0313" gradientUnits="userSpaceOnUse">
<stop stop-color="#C58BF2"/>
<stop offset="1" stop-color="#EEA4CE"/>
</linearGradient>
<linearGradient id="paint6_linear_414_5124" x1="254" y1="71" x2="160.878" y2="49.9588" gradientUnits="userSpaceOnUse">
<stop stop-color="#C58BF2"/>
<stop offset="1" stop-color="#EEA4CE"/>
</linearGradient>
<linearGradient id="paint7_linear_414_5124" x1="220" y1="86" x2="213.336" y2="85.4843" gradientUnits="userSpaceOnUse">
<stop stop-color="#C58BF2"/>
<stop offset="1" stop-color="#EEA4CE"/>
</linearGradient>
</defs>
</svg>
