<svg width="316" height="172" viewBox="0 0 316 172" fill="none" xmlns="http://www.w3.org/2000/svg">
<path d="M290.697 121.224C291.596 120.502 292.301 119.91 292.811 119.45C293.321 118.982 293.749 118.497 294.097 117.994C294.451 117.484 294.628 116.985 294.628 116.496C294.628 116.036 294.514 115.675 294.288 115.412C294.068 115.143 293.71 115.009 293.215 115.009C292.733 115.009 292.358 115.161 292.088 115.466C291.826 115.763 291.685 116.163 291.663 116.666H290.728C290.757 115.873 290.998 115.26 291.451 114.828C291.904 114.396 292.489 114.18 293.204 114.18C293.934 114.18 294.511 114.382 294.936 114.786C295.368 115.189 295.584 115.745 295.584 116.454C295.584 117.042 295.407 117.615 295.053 118.175C294.706 118.727 294.309 119.216 293.863 119.641C293.417 120.059 292.846 120.548 292.152 121.107H295.807V121.915H290.697V121.224ZM296.925 118.079C296.925 116.861 297.123 115.912 297.52 115.232C297.917 114.545 298.611 114.201 299.602 114.201C300.587 114.201 301.278 114.545 301.674 115.232C302.071 115.912 302.269 116.861 302.269 118.079C302.269 119.319 302.071 120.282 301.674 120.969C301.278 121.656 300.587 122 299.602 122C298.611 122 297.917 121.656 297.52 120.969C297.123 120.282 296.925 119.319 296.925 118.079ZM301.313 118.079C301.313 117.463 301.27 116.942 301.185 116.517C301.108 116.085 300.941 115.738 300.686 115.476C300.438 115.214 300.077 115.083 299.602 115.083C299.121 115.083 298.752 115.214 298.497 115.476C298.249 115.738 298.083 116.085 297.998 116.517C297.92 116.942 297.881 117.463 297.881 118.079C297.881 118.717 297.92 119.252 297.998 119.684C298.083 120.116 298.249 120.463 298.497 120.725C298.752 120.987 299.121 121.118 299.602 121.118C300.077 121.118 300.438 120.987 300.686 120.725C300.941 120.463 301.108 120.116 301.185 119.684C301.27 119.252 301.313 118.717 301.313 118.079ZM303.384 116.05C303.384 115.568 303.529 115.186 303.82 114.902C304.11 114.612 304.482 114.467 304.935 114.467C305.389 114.467 305.761 114.612 306.051 114.902C306.341 115.186 306.487 115.568 306.487 116.05C306.487 116.539 306.341 116.928 306.051 117.219C305.761 117.502 305.389 117.644 304.935 117.644C304.482 117.644 304.11 117.502 303.82 117.219C303.529 116.928 303.384 116.539 303.384 116.05ZM309.589 114.584L305.286 122H304.33L308.633 114.584H309.589ZM304.935 115.062C304.695 115.062 304.503 115.147 304.362 115.317C304.227 115.48 304.16 115.724 304.16 116.05C304.16 116.376 304.227 116.624 304.362 116.794C304.503 116.964 304.695 117.049 304.935 117.049C305.176 117.049 305.367 116.964 305.509 116.794C305.651 116.617 305.722 116.369 305.722 116.05C305.722 115.724 305.651 115.48 305.509 115.317C305.367 115.147 305.176 115.062 304.935 115.062ZM307.453 120.534C307.453 120.045 307.599 119.659 307.889 119.376C308.18 119.085 308.551 118.94 309.005 118.94C309.458 118.94 309.826 119.085 310.11 119.376C310.4 119.659 310.545 120.045 310.545 120.534C310.545 121.015 310.4 121.401 310.11 121.692C309.826 121.982 309.458 122.128 309.005 122.128C308.551 122.128 308.18 121.986 307.889 121.702C307.599 121.412 307.453 121.022 307.453 120.534ZM308.994 119.546C308.753 119.546 308.562 119.631 308.42 119.801C308.279 119.964 308.208 120.208 308.208 120.534C308.208 120.852 308.279 121.097 308.42 121.267C308.562 121.43 308.753 121.511 308.994 121.511C309.235 121.511 309.426 121.43 309.568 121.267C309.71 121.097 309.78 120.852 309.78 120.534C309.78 120.208 309.71 119.964 309.568 119.801C309.426 119.631 309.235 119.546 308.994 119.546Z" fill="#7B6F72"/>
<path d="M288.154 93.6187V92.1525L291.511 87.35H293.541V92.0462H294.412V93.6187H293.541V95H291.724V93.6187H288.154ZM291.851 89.3475L290.066 92.0462H291.851V89.3475ZM295.302 91.0156C295.302 89.7973 295.536 88.8375 296.003 88.1362C296.478 87.435 297.239 87.0844 298.288 87.0844C299.336 87.0844 300.094 87.435 300.561 88.1362C301.036 88.8375 301.273 89.7973 301.273 91.0156C301.273 92.2481 301.036 93.215 300.561 93.9162C300.094 94.6175 299.336 94.9681 298.288 94.9681C297.239 94.9681 296.478 94.6175 296.003 93.9162C295.536 93.215 295.302 92.2481 295.302 91.0156ZM299.488 91.0156C299.488 90.3002 299.41 89.7512 299.254 89.3687C299.099 88.9792 298.776 88.7844 298.288 88.7844C297.799 88.7844 297.477 88.9792 297.321 89.3687C297.165 89.7512 297.087 90.3002 297.087 91.0156C297.087 91.4973 297.115 91.8975 297.172 92.2162C297.229 92.5279 297.342 92.7829 297.512 92.9812C297.689 93.1725 297.948 93.2681 298.288 93.2681C298.628 93.2681 298.883 93.1725 299.053 92.9812C299.23 92.7829 299.347 92.5279 299.403 92.2162C299.46 91.8975 299.488 91.4973 299.488 91.0156ZM302.084 89.1987C302.084 88.625 302.247 88.1823 302.573 87.8706C302.906 87.559 303.335 87.4031 303.859 87.4031C304.383 87.4031 304.808 87.559 305.134 87.8706C305.46 88.1823 305.623 88.625 305.623 89.1987C305.623 89.7725 305.46 90.2152 305.134 90.5269C304.808 90.8385 304.383 90.9944 303.859 90.9944C303.335 90.9944 302.906 90.8385 302.573 90.5269C302.247 90.2152 302.084 89.7725 302.084 89.1987ZM309.299 87.52L305.208 95H303.455L307.546 87.52H309.299ZM303.848 88.4656C303.508 88.4656 303.338 88.71 303.338 89.1987C303.338 89.6804 303.508 89.9212 303.848 89.9212C304.011 89.9212 304.139 89.861 304.231 89.7406C304.323 89.6202 304.369 89.4396 304.369 89.1987C304.369 88.71 304.195 88.4656 303.848 88.4656ZM307.142 93.3212C307.142 92.7475 307.305 92.3048 307.631 91.9931C307.956 91.6815 308.381 91.5256 308.906 91.5256C309.43 91.5256 309.855 91.6815 310.181 91.9931C310.506 92.3048 310.669 92.7475 310.669 93.3212C310.669 93.895 310.506 94.3377 310.181 94.6494C309.855 94.961 309.43 95.1169 308.906 95.1169C308.381 95.1169 307.956 94.961 307.631 94.6494C307.305 94.3377 307.142 93.895 307.142 93.3212ZM308.895 92.5881C308.732 92.5881 308.605 92.6483 308.513 92.7687C308.428 92.8892 308.385 93.0733 308.385 93.3212C308.385 93.8029 308.555 94.0437 308.895 94.0437C309.058 94.0437 309.185 93.9835 309.278 93.8631C309.37 93.7427 309.416 93.5621 309.416 93.3212C309.416 93.0804 309.37 92.8998 309.278 92.7794C309.185 92.6519 309.058 92.5881 308.895 92.5881Z" fill="url(#paint0_linear_414_5132)"/>
<path d="M294.462 61.1456C294.307 60.3594 293.821 59.9662 293.007 59.9662C292.376 59.9662 291.905 60.2106 291.594 60.6994C291.282 61.181 291.13 61.9779 291.137 63.09C291.3 62.7217 291.569 62.4348 291.944 62.2294C292.327 62.0169 292.752 61.9106 293.219 61.9106C293.949 61.9106 294.53 62.1373 294.962 62.5906C295.401 63.044 295.62 63.6708 295.62 64.4712C295.62 64.9529 295.525 65.385 295.334 65.7675C295.149 66.15 294.866 66.4546 294.484 66.6812C294.108 66.9079 293.651 67.0213 293.113 67.0213C292.383 67.0213 291.813 66.8583 291.402 66.5325C290.992 66.2067 290.705 65.7569 290.542 65.1831C290.379 64.6094 290.297 63.901 290.297 63.0581C290.297 60.4585 291.204 59.1587 293.017 59.1587C293.712 59.1587 294.257 59.3465 294.654 59.7219C295.05 60.0973 295.284 60.5719 295.355 61.1456H294.462ZM293.017 62.7287C292.713 62.7287 292.426 62.7925 292.157 62.92C291.888 63.0404 291.668 63.2281 291.498 63.4831C291.335 63.731 291.254 64.0356 291.254 64.3969C291.254 64.9352 291.409 65.3744 291.721 65.7144C292.033 66.0473 292.479 66.2137 293.06 66.2137C293.556 66.2137 293.949 66.0615 294.239 65.7569C294.537 65.4452 294.685 65.0273 294.685 64.5031C294.685 63.9506 294.544 63.5185 294.26 63.2069C293.977 62.8881 293.563 62.7287 293.017 62.7287ZM296.925 63.0794C296.925 61.861 297.123 60.9119 297.52 60.2319C297.917 59.5448 298.611 59.2012 299.602 59.2012C300.587 59.2012 301.278 59.5448 301.674 60.2319C302.071 60.9119 302.269 61.861 302.269 63.0794C302.269 64.319 302.071 65.2823 301.674 65.9694C301.278 66.6565 300.587 67 299.602 67C298.611 67 297.917 66.6565 297.52 65.9694C297.123 65.2823 296.925 64.319 296.925 63.0794ZM301.313 63.0794C301.313 62.4631 301.27 61.9425 301.185 61.5175C301.108 61.0854 300.941 60.7383 300.686 60.4762C300.438 60.2142 300.077 60.0831 299.602 60.0831C299.121 60.0831 298.752 60.2142 298.497 60.4762C298.249 60.7383 298.083 61.0854 297.998 61.5175C297.92 61.9425 297.881 62.4631 297.881 63.0794C297.881 63.7169 297.92 64.2517 297.998 64.6837C298.083 65.1158 298.249 65.4629 298.497 65.725C298.752 65.9871 299.121 66.1181 299.602 66.1181C300.077 66.1181 300.438 65.9871 300.686 65.725C300.941 65.4629 301.108 65.1158 301.185 64.6837C301.27 64.2517 301.313 63.7169 301.313 63.0794ZM303.384 61.05C303.384 60.5683 303.529 60.1858 303.82 59.9025C304.11 59.6121 304.482 59.4669 304.935 59.4669C305.389 59.4669 305.761 59.6121 306.051 59.9025C306.341 60.1858 306.487 60.5683 306.487 61.05C306.487 61.5387 306.341 61.9283 306.051 62.2187C305.761 62.5021 305.389 62.6437 304.935 62.6437C304.482 62.6437 304.11 62.5021 303.82 62.2187C303.529 61.9283 303.384 61.5387 303.384 61.05ZM309.589 59.5837L305.286 67H304.33L308.633 59.5837H309.589ZM304.935 60.0619C304.695 60.0619 304.503 60.1469 304.362 60.3169C304.227 60.4798 304.16 60.7242 304.16 61.05C304.16 61.3758 304.227 61.6237 304.362 61.7937C304.503 61.9637 304.695 62.0487 304.935 62.0487C305.176 62.0487 305.367 61.9637 305.509 61.7937C305.651 61.6167 305.722 61.3687 305.722 61.05C305.722 60.7242 305.651 60.4798 305.509 60.3169C305.367 60.1469 305.176 60.0619 304.935 60.0619ZM307.453 65.5337C307.453 65.045 307.599 64.659 307.889 64.3756C308.18 64.0852 308.551 63.94 309.005 63.94C309.458 63.94 309.826 64.0852 310.11 64.3756C310.4 64.659 310.545 65.045 310.545 65.5337C310.545 66.0154 310.4 66.4015 310.11 66.6919C309.826 66.9823 309.458 67.1275 309.005 67.1275C308.551 67.1275 308.18 66.9858 307.889 66.7025C307.599 66.4121 307.453 66.0225 307.453 65.5337ZM308.994 64.5456C308.753 64.5456 308.562 64.6306 308.42 64.8006C308.279 64.9635 308.208 65.2079 308.208 65.5337C308.208 65.8525 308.279 66.0969 308.42 66.2669C308.562 66.4298 308.753 66.5112 308.994 66.5112C309.235 66.5112 309.426 66.4298 309.568 66.2669C309.71 66.0969 309.78 65.8525 309.78 65.5337C309.78 65.2079 309.71 64.9635 309.568 64.8006C309.426 64.6306 309.235 64.5456 308.994 64.5456Z" fill="#7B6F72"/>
<path d="M291.624 36.005C291.228 35.8492 290.923 35.6225 290.711 35.325C290.498 35.0275 290.392 34.6662 290.392 34.2412C290.392 33.8587 290.488 33.5152 290.679 33.2106C290.87 32.899 291.153 32.6546 291.529 32.4775C291.911 32.2933 292.372 32.2012 292.91 32.2012C293.448 32.2012 293.905 32.2933 294.281 32.4775C294.663 32.6546 294.95 32.899 295.141 33.2106C295.34 33.5152 295.439 33.8587 295.439 34.2412C295.439 34.6521 295.329 35.0133 295.109 35.325C294.89 35.6296 294.589 35.8562 294.206 36.005C294.646 36.1396 294.993 36.3769 295.248 36.7169C295.51 37.0498 295.641 37.4535 295.641 37.9281C295.641 38.3885 295.527 38.7923 295.301 39.1394C295.074 39.4794 294.752 39.745 294.334 39.9362C293.923 40.1204 293.448 40.2125 292.91 40.2125C292.372 40.2125 291.897 40.1204 291.486 39.9362C291.083 39.745 290.767 39.4794 290.541 39.1394C290.314 38.7923 290.201 38.3885 290.201 37.9281C290.201 37.4535 290.328 37.0462 290.583 36.7062C290.838 36.3662 291.185 36.1325 291.624 36.005ZM294.504 34.3581C294.504 33.926 294.362 33.5931 294.079 33.3594C293.796 33.1256 293.406 33.0087 292.91 33.0087C292.421 33.0087 292.035 33.1256 291.752 33.3594C291.469 33.5931 291.327 33.9296 291.327 34.3687C291.327 34.7654 291.472 35.0842 291.763 35.325C292.06 35.5658 292.443 35.6862 292.91 35.6862C293.385 35.6862 293.767 35.5658 294.058 35.325C294.355 35.0771 294.504 34.7548 294.504 34.3581ZM292.91 36.43C292.386 36.43 291.957 36.554 291.624 36.8019C291.292 37.0427 291.125 37.4075 291.125 37.8962C291.125 38.3496 291.284 38.7144 291.603 38.9906C291.929 39.2669 292.365 39.405 292.91 39.405C293.456 39.405 293.888 39.2669 294.206 38.9906C294.525 38.7144 294.684 38.3496 294.684 37.8962C294.684 37.4217 294.522 37.0604 294.196 36.8125C293.87 36.5575 293.441 36.43 292.91 36.43ZM296.925 36.0794C296.925 34.861 297.123 33.9119 297.52 33.2319C297.917 32.5448 298.611 32.2012 299.602 32.2012C300.587 32.2012 301.278 32.5448 301.674 33.2319C302.071 33.9119 302.269 34.861 302.269 36.0794C302.269 37.319 302.071 38.2823 301.674 38.9694C301.278 39.6565 300.587 40 299.602 40C298.611 40 297.917 39.6565 297.52 38.9694C297.123 38.2823 296.925 37.319 296.925 36.0794ZM301.313 36.0794C301.313 35.4631 301.27 34.9425 301.185 34.5175C301.108 34.0854 300.941 33.7383 300.686 33.4762C300.438 33.2142 300.077 33.0831 299.602 33.0831C299.121 33.0831 298.752 33.2142 298.497 33.4762C298.249 33.7383 298.083 34.0854 297.998 34.5175C297.92 34.9425 297.881 35.4631 297.881 36.0794C297.881 36.7169 297.92 37.2517 297.998 37.6837C298.083 38.1158 298.249 38.4629 298.497 38.725C298.752 38.9871 299.121 39.1181 299.602 39.1181C300.077 39.1181 300.438 38.9871 300.686 38.725C300.941 38.4629 301.108 38.1158 301.185 37.6837C301.27 37.2517 301.313 36.7169 301.313 36.0794ZM303.384 34.05C303.384 33.5683 303.529 33.1858 303.82 32.9025C304.11 32.6121 304.482 32.4669 304.935 32.4669C305.389 32.4669 305.761 32.6121 306.051 32.9025C306.341 33.1858 306.487 33.5683 306.487 34.05C306.487 34.5387 306.341 34.9283 306.051 35.2187C305.761 35.5021 305.389 35.6437 304.935 35.6437C304.482 35.6437 304.11 35.5021 303.82 35.2187C303.529 34.9283 303.384 34.5387 303.384 34.05ZM309.589 32.5837L305.286 40H304.33L308.633 32.5837H309.589ZM304.935 33.0619C304.695 33.0619 304.503 33.1469 304.362 33.3169C304.227 33.4798 304.16 33.7242 304.16 34.05C304.16 34.3758 304.227 34.6237 304.362 34.7937C304.503 34.9637 304.695 35.0487 304.935 35.0487C305.176 35.0487 305.367 34.9637 305.509 34.7937C305.651 34.6167 305.722 34.3687 305.722 34.05C305.722 33.7242 305.651 33.4798 305.509 33.3169C305.367 33.1469 305.176 33.0619 304.935 33.0619ZM307.453 38.5337C307.453 38.045 307.599 37.659 307.889 37.3756C308.18 37.0852 308.551 36.94 309.005 36.94C309.458 36.94 309.826 37.0852 310.11 37.3756C310.4 37.659 310.545 38.045 310.545 38.5337C310.545 39.0154 310.4 39.4015 310.11 39.6919C309.826 39.9823 309.458 40.1275 309.005 40.1275C308.551 40.1275 308.18 39.9858 307.889 39.7025C307.599 39.4121 307.453 39.0225 307.453 38.5337ZM308.994 37.5456C308.753 37.5456 308.562 37.6306 308.42 37.8006C308.279 37.9635 308.208 38.2079 308.208 38.5337C308.208 38.8525 308.279 39.0969 308.42 39.2669C308.562 39.4298 308.753 39.5112 308.994 39.5112C309.235 39.5112 309.426 39.4298 309.568 39.2669C309.71 39.0969 309.78 38.8525 309.78 38.5337C309.78 38.2079 309.71 37.9635 309.568 37.8006C309.426 37.6306 309.235 37.5456 308.994 37.5456Z" fill="#7B6F72"/>
<path d="M291.595 5.2V4.31812H293.592V12H292.615V5.2H291.595ZM295.253 8.07937C295.253 6.86104 295.451 5.91187 295.848 5.23187C296.245 4.54479 296.939 4.20125 297.931 4.20125C298.915 4.20125 299.606 4.54479 300.002 5.23187C300.399 5.91187 300.597 6.86104 300.597 8.07937C300.597 9.31896 300.399 10.2823 300.002 10.9694C299.606 11.6565 298.915 12 297.931 12C296.939 12 296.245 11.6565 295.848 10.9694C295.451 10.2823 295.253 9.31896 295.253 8.07937ZM299.641 8.07937C299.641 7.46312 299.599 6.9425 299.514 6.5175C299.436 6.08542 299.269 5.73833 299.014 5.47625C298.766 5.21417 298.405 5.08312 297.931 5.08312C297.449 5.08312 297.081 5.21417 296.826 5.47625C296.578 5.73833 296.411 6.08542 296.326 6.5175C296.248 6.9425 296.209 7.46312 296.209 8.07937C296.209 8.71687 296.248 9.25167 296.326 9.68375C296.411 10.1158 296.578 10.4629 296.826 10.725C297.081 10.9871 297.449 11.1181 297.931 11.1181C298.405 11.1181 298.766 10.9871 299.014 10.725C299.269 10.4629 299.436 10.1158 299.514 9.68375C299.599 9.25167 299.641 8.71687 299.641 8.07937ZM301.925 8.07937C301.925 6.86104 302.123 5.91187 302.52 5.23187C302.917 4.54479 303.611 4.20125 304.602 4.20125C305.587 4.20125 306.278 4.54479 306.674 5.23187C307.071 5.91187 307.269 6.86104 307.269 8.07937C307.269 9.31896 307.071 10.2823 306.674 10.9694C306.278 11.6565 305.587 12 304.602 12C303.611 12 302.917 11.6565 302.52 10.9694C302.123 10.2823 301.925 9.31896 301.925 8.07937ZM306.313 8.07937C306.313 7.46312 306.27 6.9425 306.185 6.5175C306.108 6.08542 305.941 5.73833 305.686 5.47625C305.438 5.21417 305.077 5.08312 304.602 5.08312C304.121 5.08312 303.752 5.21417 303.497 5.47625C303.249 5.73833 303.083 6.08542 302.998 6.5175C302.92 6.9425 302.881 7.46312 302.881 8.07937C302.881 8.71687 302.92 9.25167 302.998 9.68375C303.083 10.1158 303.249 10.4629 303.497 10.725C303.752 10.9871 304.121 11.1181 304.602 11.1181C305.077 11.1181 305.438 10.9871 305.686 10.725C305.941 10.4629 306.108 10.1158 306.185 9.68375C306.27 9.25167 306.313 8.71687 306.313 8.07937ZM308.384 6.05C308.384 5.56833 308.529 5.18583 308.82 4.9025C309.11 4.61208 309.482 4.46687 309.935 4.46687C310.389 4.46687 310.761 4.61208 311.051 4.9025C311.341 5.18583 311.487 5.56833 311.487 6.05C311.487 6.53875 311.341 6.92833 311.051 7.21875C310.761 7.50208 310.389 7.64375 309.935 7.64375C309.482 7.64375 309.11 7.50208 308.82 7.21875C308.529 6.92833 308.384 6.53875 308.384 6.05ZM314.589 4.58375L310.286 12H309.33L313.633 4.58375H314.589ZM309.935 5.06187C309.695 5.06187 309.503 5.14687 309.362 5.31687C309.227 5.47979 309.16 5.72417 309.16 6.05C309.16 6.37583 309.227 6.62375 309.362 6.79375C309.503 6.96375 309.695 7.04875 309.935 7.04875C310.176 7.04875 310.367 6.96375 310.509 6.79375C310.651 6.61667 310.722 6.36875 310.722 6.05C310.722 5.72417 310.651 5.47979 310.509 5.31687C310.367 5.14687 310.176 5.06187 309.935 5.06187ZM312.453 10.5337C312.453 10.045 312.599 9.65896 312.889 9.37562C313.18 9.08521 313.551 8.94 314.005 8.94C314.458 8.94 314.826 9.08521 315.11 9.37562C315.4 9.65896 315.545 10.045 315.545 10.5337C315.545 11.0154 315.4 11.4015 315.11 11.6919C314.826 11.9823 314.458 12.1275 314.005 12.1275C313.551 12.1275 313.18 11.9858 312.889 11.7025C312.599 11.4121 312.453 11.0225 312.453 10.5337ZM313.994 9.54562C313.753 9.54562 313.562 9.63062 313.42 9.80062C313.279 9.96354 313.208 10.2079 313.208 10.5337C313.208 10.8525 313.279 11.0969 313.42 11.2669C313.562 11.4298 313.753 11.5112 313.994 11.5112C314.235 11.5112 314.426 11.4298 314.568 11.2669C314.71 11.0969 314.78 10.8525 314.78 10.5337C314.78 10.2079 314.71 9.96354 314.568 9.80062C314.426 9.63062 314.235 9.54562 313.994 9.54562Z" fill="#7B6F72"/>
<path d="M290.925 146.079C290.925 144.861 291.123 143.912 291.52 143.232C291.917 142.545 292.611 142.201 293.602 142.201C294.587 142.201 295.278 142.545 295.674 143.232C296.071 143.912 296.269 144.861 296.269 146.079C296.269 147.319 296.071 148.282 295.674 148.969C295.278 149.656 294.587 150 293.602 150C292.611 150 291.917 149.656 291.52 148.969C291.123 148.282 290.925 147.319 290.925 146.079ZM295.313 146.079C295.313 145.463 295.27 144.942 295.185 144.517C295.108 144.085 294.941 143.738 294.686 143.476C294.438 143.214 294.077 143.083 293.602 143.083C293.121 143.083 292.752 143.214 292.497 143.476C292.249 143.738 292.083 144.085 291.998 144.517C291.92 144.942 291.881 145.463 291.881 146.079C291.881 146.717 291.92 147.252 291.998 147.684C292.083 148.116 292.249 148.463 292.497 148.725C292.752 148.987 293.121 149.118 293.602 149.118C294.077 149.118 294.438 148.987 294.686 148.725C294.941 148.463 295.108 148.116 295.185 147.684C295.27 147.252 295.313 146.717 295.313 146.079ZM297.384 144.05C297.384 143.568 297.529 143.186 297.82 142.902C298.11 142.612 298.482 142.467 298.935 142.467C299.389 142.467 299.761 142.612 300.051 142.902C300.341 143.186 300.487 143.568 300.487 144.05C300.487 144.539 300.341 144.928 300.051 145.219C299.761 145.502 299.389 145.644 298.935 145.644C298.482 145.644 298.11 145.502 297.82 145.219C297.529 144.928 297.384 144.539 297.384 144.05ZM303.589 142.584L299.286 150H298.33L302.633 142.584H303.589ZM298.935 143.062C298.695 143.062 298.503 143.147 298.362 143.317C298.227 143.48 298.16 143.724 298.16 144.05C298.16 144.376 298.227 144.624 298.362 144.794C298.503 144.964 298.695 145.049 298.935 145.049C299.176 145.049 299.367 144.964 299.509 144.794C299.651 144.617 299.722 144.369 299.722 144.05C299.722 143.724 299.651 143.48 299.509 143.317C299.367 143.147 299.176 143.062 298.935 143.062ZM301.453 148.534C301.453 148.045 301.599 147.659 301.889 147.376C302.18 147.085 302.551 146.94 303.005 146.94C303.458 146.94 303.826 147.085 304.11 147.376C304.4 147.659 304.545 148.045 304.545 148.534C304.545 149.015 304.4 149.401 304.11 149.692C303.826 149.982 303.458 150.128 303.005 150.128C302.551 150.128 302.18 149.986 301.889 149.702C301.599 149.412 301.453 149.022 301.453 148.534ZM302.994 147.546C302.753 147.546 302.562 147.631 302.42 147.801C302.279 147.964 302.208 148.208 302.208 148.534C302.208 148.852 302.279 149.097 302.42 149.267C302.562 149.43 302.753 149.511 302.994 149.511C303.235 149.511 303.426 149.43 303.568 149.267C303.71 149.097 303.78 148.852 303.78 148.534C303.78 148.208 303.71 147.964 303.568 147.801C303.426 147.631 303.235 147.546 302.994 147.546Z" fill="#7B6F72"/>
<g opacity="0.3">
<line x1="1" y1="7.4" x2="284" y2="7.4" stroke="#DDDADA" stroke-width="1.2"/>
<line x1="1" y1="35.4" x2="284" y2="35.4" stroke="#DDDADA" stroke-width="1.2"/>
<line x1="1" y1="62.4" x2="284" y2="62.4" stroke="#DDDADA" stroke-width="1.2"/>
<line x1="1" y1="89.4" x2="284" y2="89.4" stroke="#DDDADA" stroke-width="1.2"/>
<line x1="1" y1="117.4" x2="284" y2="117.4" stroke="#DDDADA" stroke-width="1.2"/>
<line x1="1" y1="144.4" x2="284" y2="144.4" stroke="#DDDADA" stroke-width="1.2"/>
</g>
<path d="M8.576 167.084C8.024 167.084 7.528 166.988 7.088 166.796C6.656 166.596 6.316 166.324 6.068 165.98C5.82 165.628 5.692 165.224 5.684 164.768H6.848C6.888 165.16 7.048 165.492 7.328 165.764C7.616 166.028 8.032 166.16 8.576 166.16C9.096 166.16 9.504 166.032 9.8 165.776C10.104 165.512 10.256 165.176 10.256 164.768C10.256 164.448 10.168 164.188 9.992 163.988C9.816 163.788 9.596 163.636 9.332 163.532C9.068 163.428 8.712 163.316 8.264 163.196C7.712 163.052 7.268 162.908 6.932 162.764C6.604 162.62 6.32 162.396 6.08 162.092C5.848 161.78 5.732 161.364 5.732 160.844C5.732 160.388 5.848 159.984 6.08 159.632C6.312 159.28 6.636 159.008 7.052 158.816C7.476 158.624 7.96 158.528 8.504 158.528C9.288 158.528 9.928 158.724 10.424 159.116C10.928 159.508 11.212 160.028 11.276 160.676H10.076C10.036 160.356 9.868 160.076 9.572 159.836C9.276 159.588 8.884 159.464 8.396 159.464C7.94 159.464 7.568 159.584 7.28 159.824C6.992 160.056 6.848 160.384 6.848 160.808C6.848 161.112 6.932 161.36 7.1 161.552C7.276 161.744 7.488 161.892 7.736 161.996C7.992 162.092 8.348 162.204 8.804 162.332C9.356 162.484 9.8 162.636 10.136 162.788C10.472 162.932 10.76 163.16 11 163.472C11.24 163.776 11.36 164.192 11.36 164.72C11.36 165.128 11.252 165.512 11.036 165.872C10.82 166.232 10.5 166.524 10.076 166.748C9.652 166.972 9.152 167.084 8.576 167.084ZM18.799 160.424V167H17.707V166.028C17.499 166.364 17.207 166.628 16.831 166.82C16.463 167.004 16.055 167.096 15.607 167.096C15.095 167.096 14.635 166.992 14.227 166.784C13.819 166.568 13.495 166.248 13.255 165.824C13.023 165.4 12.907 164.884 12.907 164.276V160.424H13.987V164.132C13.987 164.78 14.151 165.28 14.479 165.632C14.807 165.976 15.255 166.148 15.823 166.148C16.407 166.148 16.867 165.968 17.203 165.608C17.539 165.248 17.707 164.724 17.707 164.036V160.424H18.799ZM23.8468 160.304C24.6468 160.304 25.2948 160.548 25.7908 161.036C26.2868 161.516 26.5348 162.212 26.5348 163.124V167H25.4548V163.28C25.4548 162.624 25.2908 162.124 24.9628 161.78C24.6348 161.428 24.1868 161.252 23.6188 161.252C23.0428 161.252 22.5828 161.432 22.2388 161.792C21.9028 162.152 21.7348 162.676 21.7348 163.364V167H20.6428V160.424H21.7348V161.36C21.9508 161.024 22.2428 160.764 22.6108 160.58C22.9868 160.396 23.3988 160.304 23.8468 160.304Z" fill="#7B6F72"/>
<path d="M57.408 158.696V167H56.316V160.808L53.556 167H52.788L50.016 160.796V167H48.924V158.696H50.1L53.172 165.56L56.244 158.696H57.408ZM62.1279 167.108C61.5119 167.108 60.9519 166.968 60.4479 166.688C59.9519 166.408 59.5599 166.012 59.2719 165.5C58.9919 164.98 58.8519 164.38 58.8519 163.7C58.8519 163.028 58.9959 162.436 59.2839 161.924C59.5799 161.404 59.9799 161.008 60.4839 160.736C60.9879 160.456 61.5519 160.316 62.1759 160.316C62.7999 160.316 63.3639 160.456 63.8679 160.736C64.3719 161.008 64.7679 161.4 65.0559 161.912C65.3519 162.424 65.4999 163.02 65.4999 163.7C65.4999 164.38 65.3479 164.98 65.0439 165.5C64.7479 166.012 64.3439 166.408 63.8319 166.688C63.3199 166.968 62.7519 167.108 62.1279 167.108ZM62.1279 166.148C62.5199 166.148 62.8879 166.056 63.2319 165.872C63.5759 165.688 63.8519 165.412 64.0599 165.044C64.2759 164.676 64.3839 164.228 64.3839 163.7C64.3839 163.172 64.2799 162.724 64.0719 162.356C63.8639 161.988 63.5919 161.716 63.2559 161.54C62.9199 161.356 62.5559 161.264 62.1639 161.264C61.7639 161.264 61.3959 161.356 61.0599 161.54C60.7319 161.716 60.4679 161.988 60.2679 162.356C60.0679 162.724 59.9679 163.172 59.9679 163.7C59.9679 164.236 60.0639 164.688 60.2559 165.056C60.4559 165.424 60.7199 165.7 61.0479 165.884C61.3759 166.06 61.7359 166.148 62.1279 166.148ZM70.1397 160.304C70.9397 160.304 71.5877 160.548 72.0837 161.036C72.5797 161.516 72.8277 162.212 72.8277 163.124V167H71.7477V163.28C71.7477 162.624 71.5837 162.124 71.2557 161.78C70.9277 161.428 70.4797 161.252 69.9117 161.252C69.3357 161.252 68.8757 161.432 68.5317 161.792C68.1957 162.152 68.0277 162.676 68.0277 163.364V167H66.9357V160.424H68.0277V161.36C68.2437 161.024 68.5357 160.764 68.9037 160.58C69.2797 160.396 69.6917 160.304 70.1397 160.304Z" fill="#7B6F72"/>
<path d="M100.072 158.636V159.524H97.792V167H96.7V159.524H94.408V158.636H100.072ZM107.248 160.424V167H106.156V166.028C105.948 166.364 105.656 166.628 105.28 166.82C104.912 167.004 104.504 167.096 104.056 167.096C103.544 167.096 103.084 166.992 102.676 166.784C102.268 166.568 101.944 166.248 101.704 165.824C101.472 165.4 101.356 164.884 101.356 164.276V160.424H102.436V164.132C102.436 164.78 102.6 165.28 102.928 165.632C103.256 165.976 103.704 166.148 104.272 166.148C104.856 166.148 105.316 165.968 105.652 165.608C105.988 165.248 106.156 164.724 106.156 164.036V160.424H107.248ZM115.092 163.46C115.092 163.668 115.08 163.888 115.056 164.12H109.8C109.84 164.768 110.06 165.276 110.46 165.644C110.868 166.004 111.36 166.184 111.936 166.184C112.408 166.184 112.8 166.076 113.112 165.86C113.432 165.636 113.656 165.34 113.784 164.972H114.96C114.784 165.604 114.432 166.12 113.904 166.52C113.376 166.912 112.72 167.108 111.936 167.108C111.312 167.108 110.752 166.968 110.256 166.688C109.768 166.408 109.384 166.012 109.104 165.5C108.824 164.98 108.684 164.38 108.684 163.7C108.684 163.02 108.82 162.424 109.092 161.912C109.364 161.4 109.744 161.008 110.232 160.736C110.728 160.456 111.296 160.316 111.936 160.316C112.56 160.316 113.112 160.452 113.592 160.724C114.072 160.996 114.44 161.372 114.696 161.852C114.96 162.324 115.092 162.86 115.092 163.46ZM113.964 163.232C113.964 162.816 113.872 162.46 113.688 162.164C113.504 161.86 113.252 161.632 112.932 161.48C112.62 161.32 112.272 161.24 111.888 161.24C111.336 161.24 110.864 161.416 110.472 161.768C110.088 162.12 109.868 162.608 109.812 163.232H113.964Z" fill="#7B6F72"/>
<path d="M147.436 158.636L145.012 167H143.788L141.844 160.268L139.828 167L138.616 167.012L136.276 158.636H137.44L139.264 165.728L141.28 158.636H142.504L144.424 165.704L146.26 158.636H147.436ZM154.631 163.46C154.631 163.668 154.619 163.888 154.595 164.12H149.339C149.379 164.768 149.599 165.276 149.999 165.644C150.407 166.004 150.899 166.184 151.475 166.184C151.947 166.184 152.339 166.076 152.651 165.86C152.971 165.636 153.195 165.34 153.323 164.972H154.499C154.323 165.604 153.971 166.12 153.443 166.52C152.915 166.912 152.259 167.108 151.475 167.108C150.851 167.108 150.291 166.968 149.795 166.688C149.307 166.408 148.923 166.012 148.643 165.5C148.363 164.98 148.223 164.38 148.223 163.7C148.223 163.02 148.359 162.424 148.631 161.912C148.903 161.4 149.283 161.008 149.771 160.736C150.267 160.456 150.835 160.316 151.475 160.316C152.099 160.316 152.651 160.452 153.131 160.724C153.611 160.996 153.979 161.372 154.235 161.852C154.499 162.324 154.631 162.86 154.631 163.46ZM153.503 163.232C153.503 162.816 153.411 162.46 153.227 162.164C153.043 161.86 152.791 161.632 152.471 161.48C152.159 161.32 151.811 161.24 151.427 161.24C150.875 161.24 150.403 161.416 150.011 161.768C149.627 162.12 149.407 162.608 149.351 163.232H153.503ZM155.664 163.688C155.664 163.016 155.8 162.428 156.072 161.924C156.344 161.412 156.716 161.016 157.188 160.736C157.668 160.456 158.204 160.316 158.796 160.316C159.308 160.316 159.784 160.436 160.224 160.676C160.664 160.908 161 161.216 161.232 161.6V158.12H162.336V167H161.232V165.764C161.016 166.156 160.696 166.48 160.272 166.736C159.848 166.984 159.352 167.108 158.784 167.108C158.2 167.108 157.668 166.964 157.188 166.676C156.716 166.388 156.344 165.984 156.072 165.464C155.8 164.944 155.664 164.352 155.664 163.688ZM161.232 163.7C161.232 163.204 161.132 162.772 160.932 162.404C160.732 162.036 160.46 161.756 160.116 161.564C159.78 161.364 159.408 161.264 159 161.264C158.592 161.264 158.22 161.36 157.884 161.552C157.548 161.744 157.28 162.024 157.08 162.392C156.88 162.76 156.78 163.192 156.78 163.688C156.78 164.192 156.88 164.632 157.08 165.008C157.28 165.376 157.548 165.66 157.884 165.86C158.22 166.052 158.592 166.148 159 166.148C159.408 166.148 159.78 166.052 160.116 165.86C160.46 165.66 160.732 165.376 160.932 165.008C161.132 164.632 161.232 164.196 161.232 163.7Z" fill="#7B6F72"/>
<path d="M190.072 158.636V159.524H187.792V167H186.7V159.524H184.408V158.636H190.072ZM194.68 160.304C195.176 160.304 195.624 160.412 196.024 160.628C196.424 160.836 196.736 161.152 196.96 161.576C197.192 162 197.308 162.516 197.308 163.124V167H196.228V163.28C196.228 162.624 196.064 162.124 195.736 161.78C195.408 161.428 194.96 161.252 194.392 161.252C193.816 161.252 193.356 161.432 193.012 161.792C192.676 162.152 192.508 162.676 192.508 163.364V167H191.416V158.12H192.508V161.36C192.724 161.024 193.02 160.764 193.396 160.58C193.78 160.396 194.208 160.304 194.68 160.304ZM204.924 160.424V167H203.832V166.028C203.624 166.364 203.332 166.628 202.956 166.82C202.588 167.004 202.18 167.096 201.732 167.096C201.22 167.096 200.76 166.992 200.352 166.784C199.944 166.568 199.62 166.248 199.38 165.824C199.148 165.4 199.032 164.884 199.032 164.276V160.424H200.112V164.132C200.112 164.78 200.276 165.28 200.604 165.632C200.932 165.976 201.38 166.148 201.948 166.148C202.532 166.148 202.992 165.968 203.328 165.608C203.664 165.248 203.832 164.724 203.832 164.036V160.424H204.924Z" fill="#7B6F72"/>
<path d="M231.228 158.576V160.22H227.796V161.996H230.364V163.592H227.796V167H225.744V158.576H231.228ZM234.359 161.42C234.599 161.052 234.899 160.764 235.259 160.556C235.619 160.34 236.019 160.232 236.459 160.232V162.404H235.895C235.383 162.404 234.999 162.516 234.743 162.74C234.487 162.956 234.359 163.34 234.359 163.892V167H232.307V160.304H234.359V161.42ZM238.471 159.608C238.111 159.608 237.815 159.504 237.583 159.296C237.359 159.08 237.247 158.816 237.247 158.504C237.247 158.184 237.359 157.92 237.583 157.712C237.815 157.496 238.111 157.388 238.471 157.388C238.823 157.388 239.111 157.496 239.335 157.712C239.567 157.92 239.683 158.184 239.683 158.504C239.683 158.816 239.567 159.08 239.335 159.296C239.111 159.504 238.823 159.608 238.471 159.608ZM239.491 160.304V167H237.439V160.304H239.491Z" fill="url(#paint1_linear_414_5132)"/>
<path d="M263.576 167.084C263.024 167.084 262.528 166.988 262.088 166.796C261.656 166.596 261.316 166.324 261.068 165.98C260.82 165.628 260.692 165.224 260.684 164.768H261.848C261.888 165.16 262.048 165.492 262.328 165.764C262.616 166.028 263.032 166.16 263.576 166.16C264.096 166.16 264.504 166.032 264.8 165.776C265.104 165.512 265.256 165.176 265.256 164.768C265.256 164.448 265.168 164.188 264.992 163.988C264.816 163.788 264.596 163.636 264.332 163.532C264.068 163.428 263.712 163.316 263.264 163.196C262.712 163.052 262.268 162.908 261.932 162.764C261.604 162.62 261.32 162.396 261.08 162.092C260.848 161.78 260.732 161.364 260.732 160.844C260.732 160.388 260.848 159.984 261.08 159.632C261.312 159.28 261.636 159.008 262.052 158.816C262.476 158.624 262.96 158.528 263.504 158.528C264.288 158.528 264.928 158.724 265.424 159.116C265.928 159.508 266.212 160.028 266.276 160.676H265.076C265.036 160.356 264.868 160.076 264.572 159.836C264.276 159.588 263.884 159.464 263.396 159.464C262.94 159.464 262.568 159.584 262.28 159.824C261.992 160.056 261.848 160.384 261.848 160.808C261.848 161.112 261.932 161.36 262.1 161.552C262.276 161.744 262.488 161.892 262.736 161.996C262.992 162.092 263.348 162.204 263.804 162.332C264.356 162.484 264.8 162.636 265.136 162.788C265.472 162.932 265.76 163.16 266 163.472C266.24 163.776 266.36 164.192 266.36 164.72C266.36 165.128 266.252 165.512 266.036 165.872C265.82 166.232 265.5 166.524 265.076 166.748C264.652 166.972 264.152 167.084 263.576 167.084ZM267.559 163.688C267.559 163.016 267.695 162.428 267.967 161.924C268.239 161.412 268.611 161.016 269.083 160.736C269.563 160.456 270.095 160.316 270.679 160.316C271.255 160.316 271.755 160.44 272.179 160.688C272.603 160.936 272.919 161.248 273.127 161.624V160.424H274.231V167H273.127V165.776C272.911 166.16 272.587 166.48 272.155 166.736C271.731 166.984 271.235 167.108 270.667 167.108C270.083 167.108 269.555 166.964 269.083 166.676C268.611 166.388 268.239 165.984 267.967 165.464C267.695 164.944 267.559 164.352 267.559 163.688ZM273.127 163.7C273.127 163.204 273.027 162.772 272.827 162.404C272.627 162.036 272.355 161.756 272.011 161.564C271.675 161.364 271.303 161.264 270.895 161.264C270.487 161.264 270.115 161.36 269.779 161.552C269.443 161.744 269.175 162.024 268.975 162.392C268.775 162.76 268.675 163.192 268.675 163.688C268.675 164.192 268.775 164.632 268.975 165.008C269.175 165.376 269.443 165.66 269.779 165.86C270.115 166.052 270.487 166.148 270.895 166.148C271.303 166.148 271.675 166.052 272.011 165.86C272.355 165.66 272.627 165.376 272.827 165.008C273.027 164.632 273.127 164.196 273.127 163.7ZM277.408 161.324V165.2C277.408 165.52 277.476 165.748 277.612 165.884C277.748 166.012 277.984 166.076 278.32 166.076H279.124V167H278.14C277.532 167 277.076 166.86 276.772 166.58C276.468 166.3 276.316 165.84 276.316 165.2V161.324H275.464V160.424H276.316V158.768H277.408V160.424H279.124V161.324H277.408Z" fill="#7B6F72"/>
<path opacity="0.3" d="M3.49991 117C3.49991 117 14.0325 63 50.5 63C77 63 96 91.4991 121 91.4991C154.606 91.4991 167.895 37.4992 201.5 37.4992C226.5 37.4992 202.5 86.5 236 86.5C267 86.5 254.5 45 283.758 36.001" stroke="url(#paint2_linear_414_5132)" stroke-width="0.8" stroke-linecap="round"/>
<path opacity="0.3" d="M1.5 90.0003C8 114 27.3049 144.88 54.5 130C81 115.5 91.2868 23 130.5 23C161 23 156.725 112.5 182.5 112.5C211.5 112.5 206.5 47.9999 237.5 47.9999C257.5 47.9999 264 91.4999 283 89.9998" stroke="url(#paint3_linear_414_5132)" stroke-width="2.2" stroke-linecap="round"/>
<path d="M241.625 48.6452C240.314 48.2261 238.942 48 237.5 48C231.696 48 227.154 50.2608 223.415 53.9359" stroke="url(#paint4_linear_414_5132)" stroke-width="2.2" stroke-linecap="round"/>
<circle cx="223" cy="54" r="2.5" fill="white" stroke="url(#paint5_linear_414_5132)"/>
<circle cx="242" cy="49" r="2.5" fill="white" stroke="url(#paint6_linear_414_5132)"/>
<path d="M223.5 167V54L230.5 49L236 48L241.5 48.5V167H223.5Z" fill="url(#paint7_linear_414_5132)"/>
<defs>
<linearGradient id="paint0_linear_414_5132" x1="311" y1="99" x2="279.249" y2="95.3146" gradientUnits="userSpaceOnUse">
<stop stop-color="#92A3FD"/>
<stop offset="1" stop-color="#9DCEFF"/>
</linearGradient>
<linearGradient id="paint1_linear_414_5132" x1="241" y1="172" x2="219.649" y2="170.531" gradientUnits="userSpaceOnUse">
<stop stop-color="#92A3FD"/>
<stop offset="1" stop-color="#9DCEFF"/>
</linearGradient>
<linearGradient id="paint2_linear_414_5132" x1="3.49992" y1="36.0009" x2="354.128" y2="129.878" gradientUnits="userSpaceOnUse">
<stop stop-color="#C58BF2"/>
<stop offset="1" stop-color="#EEA4CE"/>
</linearGradient>
<linearGradient id="paint3_linear_414_5132" x1="283" y1="133.895" x2="-80.4063" y2="62.5118" gradientUnits="userSpaceOnUse">
<stop stop-color="#92A3FD"/>
<stop offset="1" stop-color="#9DCEFF"/>
</linearGradient>
<linearGradient id="paint4_linear_414_5132" x1="241.625" y1="53.9359" x2="218.511" y2="48.4489" gradientUnits="userSpaceOnUse">
<stop stop-color="#92A3FD"/>
<stop offset="1" stop-color="#9DCEFF"/>
</linearGradient>
<linearGradient id="paint5_linear_414_5132" x1="226" y1="57" x2="218.003" y2="56.3812" gradientUnits="userSpaceOnUse">
<stop stop-color="#92A3FD"/>
<stop offset="1" stop-color="#9DCEFF"/>
</linearGradient>
<linearGradient id="paint6_linear_414_5132" x1="245" y1="52" x2="237.003" y2="51.3812" gradientUnits="userSpaceOnUse">
<stop stop-color="#92A3FD"/>
<stop offset="1" stop-color="#9DCEFF"/>
</linearGradient>
<linearGradient id="paint7_linear_414_5132" x1="232.5" y1="48" x2="232.5" y2="185" gradientUnits="userSpaceOnUse">
<stop stop-color="#93A8FE" stop-opacity="0.5"/>
<stop offset="1" stop-color="white" stop-opacity="0.4"/>
</linearGradient>
</defs>
</svg>
