<svg width="40" height="47" viewBox="0 0 40 47" fill="none" xmlns="http://www.w3.org/2000/svg">
<path d="M34.1553 32.0889C34.615 27.5192 34.1766 23.0651 33.3923 18.5671C32.9353 15.9364 32.7543 13.2672 32.852 10.6007C32.9373 8.74844 32.4617 6.91273 31.4847 5.3229C30.3685 3.40245 28.4657 1.8522 26.1268 2.12292C26.0205 2.1449 25.9108 2.1449 25.8045 2.12292C25.7187 2.09087 25.6387 2.04555 25.5675 1.98872C24.359 1.09328 22.3661 0.822561 20.8827 0.801737C19.055 0.770723 17.2462 1.16741 15.6077 1.95864C12.8399 3.31452 10.7048 5.92911 10.1574 8.90003C9.9655 10.1356 9.9416 11.3905 10.0863 12.6322C10.1811 13.6618 10.3233 14.7146 10.1361 15.7234C9.87307 17.1117 9.01524 18.3102 8.47732 19.6222C7.79764 21.2571 7.46936 23.011 7.51285 24.775C7.56736 26.0383 7.95362 29.2453 9.42519 29.7034C11.4086 30.3235 13.5034 30.5202 15.5864 30.7122L21.4585 31.2583C22.4632 31.3508 23.4869 31.4434 24.4656 31.2074C25.1979 31.0315 25.8732 30.6798 26.5984 30.4808C27.4983 30.2353 28.4494 30.2305 29.3519 30.4669" fill="#AA4F7A"/>
<g style="mix-blend-mode:multiply" opacity="0.32">
<g style="mix-blend-mode:multiply" opacity="0.32">
<path d="M16.8142 6.55176L13.0227 7.67395C12.9536 7.69 12.8884 7.71909 12.8308 7.75956C12.7664 7.81877 12.7197 7.89395 12.6957 7.97706C12.0449 9.59054 11.6038 11.2773 11.3829 12.998C11.1033 15.2447 12.1507 17.4659 11.48 19.708L10.7075 22.3804C10.3189 23.6831 9.9279 25.0529 10.2336 26.3764C10.4706 27.4176 11.1033 28.32 11.5677 29.2825C12.2658 30.7313 12.5803 32.328 12.4824 33.9263C12.4824 33.8754 15.563 33.2669 15.845 33.1859C16.9954 32.8647 18.1267 32.4815 19.2337 32.0382C20.1958 31.6541 21.1294 31.1844 22.0939 30.8374C22.6697 30.6338 23.1982 30.4857 23.5963 30.0021C24.6982 28.6624 24.9541 26.3 24.9968 24.6549C25.045 22.7154 24.6711 20.7879 23.8996 19C23.3608 17.7492 22.619 16.5913 21.7029 15.5709" fill="#AA4F7A"/>
</g>
</g>
<path d="M5.11727 31.3972C2.98455 34.8008 1.67885 38.6672 0.963201 42.6006C0.655141 44.3013 0.463196 46.1269 1.26415 47.6655C2.56985 50.2107 6.16467 49.5004 8.47512 48.9936C11.9965 48.2255 16.2951 46.659 18.4989 43.7899" fill="#EA7C99"/>
<path d="M38.1983 49.2898C39.0727 46.8627 38.8807 43.8131 38.6722 41.4229C38.4186 38.371 37.7622 35.5829 36.2764 32.8249C35.1627 30.7609 33.9921 28.4888 31.8001 27.3874C30.7385 26.8529 29.5915 26.5036 28.4825 26.0477C27.1318 25.4878 25.8403 24.2869 26.2147 22.7298C26.4517 21.7001 27.21 20.8579 27.9896 20.1221C28.4356 19.6813 28.8475 19.2087 29.2219 18.7084C29.2434 18.6764 29.2727 18.6502 29.3072 18.632C29.3587 18.6197 29.4129 18.6246 29.4612 18.6459C30.0461 18.8281 30.6725 18.8405 31.2644 18.6815C31.8563 18.5225 32.3882 18.1991 32.7954 17.7505C33.5679 16.9175 33.7764 15.1474 33.0963 14.1849C32.5086 13.3519 31.0418 13.065 30.1295 13.4399C30.4849 11.5703 30.5513 8.91407 29.7527 7.14401C29.0086 5.42949 27.0868 4.13839 25.4446 3.34707C23.8024 2.55575 22.0062 2.40536 20.217 2.59971C18.3379 2.80564 16.3853 3.49284 15.2952 4.99912C14.8801 5.6229 14.5607 6.30265 14.3473 7.01676C13.7308 8.81707 13.2982 10.6725 13.0558 12.556C12.852 14.1525 12.7999 16.0452 13.1483 17.6255C13.3418 18.6163 13.8374 19.5268 14.5701 20.2378C15.4824 21.0754 16.2525 21.3438 17.4943 21.515C18.7905 21.6955 20.646 21.9408 21.2858 23.2157C22.428 25.4577 20.5749 26.5221 18.6649 27.1653C14.5345 28.5536 14.6767 32.6606 14.1222 36.1706C13.8852 37.7255 13.1743 38.9819 12.6648 40.4419C12.3936 41.3313 12.2344 42.2497 12.1909 43.1768C12.1459 43.6951 11.9089 44.4239 11.9895 44.9283C12.0748 45.4698 12.5203 45.7474 12.9539 46.1014C14.2881 47.1866 15.7976 48.0589 17.2834 48.9127C18.5725 49.6262 19.9326 50.2099 21.3426 50.655C23.3119 51.3075 25.1341 52.1266 27.1768 52.5639C28.7091 52.9161 30.2678 53.1482 31.838 53.258C34.2338 53.3945 36.4731 52.5037 37.6627 50.4143C37.8739 50.0552 38.0531 49.679 38.1983 49.2898Z" fill="#FF8DA8"/>
<g style="mix-blend-mode:multiply" opacity="0.2">
<g style="mix-blend-mode:multiply" opacity="0.2">
<path d="M24.2502 2.71973C24.5559 4.06636 24.3094 5.46389 24.1506 6.83366C23.9919 8.20343 23.9374 9.65881 24.5772 10.8897C24.9949 11.6433 25.6404 12.2527 26.4258 12.6349C27.2112 13.0171 28.0982 13.1534 28.9659 13.0254C28.5248 10.3755 27.6207 7.81934 26.2928 5.46852" fill="#FF8DA8"/>
</g>
</g>
<path d="M16.3779 7.04918C16.1812 6.22778 14.6409 6.87333 14.2452 7.16487C13.911 7.40782 13.4537 7.92149 13.9726 8.2431C14.4916 8.56472 15.6006 7.94925 16.0153 7.66234C16.2215 7.51194 16.4371 7.28056 16.3779 7.04918Z" fill="#843860"/>
<path d="M22.5227 6.72965C22.7193 5.90825 24.2596 6.55611 24.6554 6.84765C24.9871 7.07903 25.4445 7.60195 24.9255 7.92357C24.4066 8.24519 23.2976 7.62972 22.8829 7.34281C22.6791 7.19935 22.4634 6.97491 22.5227 6.72965Z" fill="#843860"/>
<path d="M31.857 53.2651C34.2528 53.4016 36.4921 52.5107 37.6817 50.4214C37.8868 50.0594 38.0596 49.6808 38.1983 49.2899C39.0727 46.8628 38.8808 43.8132 38.6722 41.423C38.4187 38.3711 37.7623 35.583 36.2765 32.825C35.2812 30.9739 34.2362 28.9725 32.4613 27.7786C32.402 27.8133 32.3404 27.848 32.2836 27.885C29.0039 29.9281 26.0963 32.9314 22.2455 33.4705C19.9706 33.7875 17.6483 33.172 15.5796 32.191C15.3284 32.0707 15.0654 31.9457 14.7952 31.8277C14.4682 33.216 14.3568 34.7547 14.1317 36.18C13.8947 37.7348 13.1838 38.9912 12.6744 40.4512C12.4031 41.3407 12.2439 42.2591 12.2004 43.1861C12.1554 43.7044 11.9184 44.4333 11.999 44.9377C12.0843 45.4791 12.5298 45.7568 12.9635 46.1108C14.2976 47.196 15.8071 48.0683 17.2929 48.9221C18.5821 49.6355 19.9421 50.2193 21.3522 50.6643C23.3214 51.3168 25.1437 52.1359 27.1863 52.5732C28.7218 52.9252 30.2837 53.1565 31.857 53.2651Z" fill="#F26757"/>
<g style="mix-blend-mode:multiply" opacity="0.25">
<g style="mix-blend-mode:multiply" opacity="0.25">
<path d="M25.0367 18.9925C26.297 18.9925 27.3187 17.9949 27.3187 16.7643C27.3187 15.5337 26.297 14.5361 25.0367 14.5361C23.7763 14.5361 22.7546 15.5337 22.7546 16.7643C22.7546 17.9949 23.7763 18.9925 25.0367 18.9925Z" fill="#FF8DA8"/>
</g>
<g style="mix-blend-mode:multiply" opacity="0.25">
<path d="M14.5886 16.0153C14.5883 15.5309 14.4261 15.0598 14.1268 14.6735C13.8274 14.2873 13.4072 14.0069 12.9298 13.875C12.8321 15.129 12.9046 16.3902 13.1455 17.6257C13.1763 17.7645 13.2142 17.9033 13.2545 18.0398C13.6524 17.863 13.9899 17.5781 14.2264 17.2191C14.463 16.8601 14.5887 16.4422 14.5886 16.0153Z" fill="#FF8DA8"/>
</g>
</g>
<path d="M38.9802 40.9278C38.801 38.9974 38.4036 37.0924 37.7953 35.2474C37.3214 33.7966 36.8901 32.0543 35.7337 30.99C33.9422 29.3403 31.4564 29.7035 29.7242 31.2931C27.4635 33.3755 28.1578 36.0665 29.2194 38.5284C29.9753 40.2822 30.8379 42.0407 30.9872 43.9357C31.0129 44.0967 30.9932 44.2614 30.9303 44.4123C30.7787 44.7016 30.3806 44.7548 30.0464 44.7548C28.3545 44.7548 26.6933 44.336 25.0535 43.9218L20.1435 42.6816C18.7098 42.3207 17.2596 41.9551 15.8662 41.4599C14.6624 43.0687 13.6653 44.8156 12.897 46.6614C15.1174 48.3851 17.4586 50.0534 20.1269 51.0298C24.1032 52.4875 29.1507 54.5838 33.5441 53.693C34.6619 53.4892 35.7049 53.0011 36.5678 52.278C37.4307 51.5549 38.083 50.6223 38.4588 49.5744C39.4849 46.8465 39.2219 43.7645 38.9802 40.9278Z" fill="#FF8DA8"/>
<path d="M27.4159 25.4183C27.0576 25.1558 26.7536 24.8291 26.5201 24.4558C24.9434 24.9702 23.2394 24.9783 21.6575 24.4789C21.6619 24.8966 21.5235 25.3037 21.2642 25.6358C23.2772 26.2712 25.4552 26.1942 27.4159 25.4183Z" fill="#F7BF54"/>
<path d="M23.8398 1.88444C24.7332 2.67345 24.9749 3.87662 25.091 5.00113C25.2688 6.74573 25.2617 8.53893 25.9323 10.1817C26.6029 11.8245 28.1645 13.3262 30.0958 13.384C30.2058 13.3962 30.3168 13.3743 30.4134 13.3215C30.4833 13.2599 30.5328 13.1794 30.5556 13.0902C31.7854 9.82077 30.5556 5.91739 27.6029 3.72854C26.5626 2.96499 25.3446 2.40505 24.1598 1.85205" fill="#AA4F7A"/>
<g style="mix-blend-mode:multiply" opacity="0.2">
<g style="mix-blend-mode:multiply" opacity="0.2">
<path d="M14.0203 8.1246C15.5155 8.55034 17.0724 8.84651 18.6293 8.74701C20.1862 8.64752 21.7478 8.12692 22.8948 7.08802C24.0417 6.04913 24.6839 4.45029 24.3616 2.96021C22.3506 4.41987 19.9402 5.26235 17.4374 5.38044" fill="#FF8DA8"/>
</g>
</g>
<path d="M24.4304 2.24542C24.8712 3.40463 24.3356 4.73507 23.4494 5.63745C21.9897 7.12291 19.7835 7.6412 17.6839 7.82862C15.5844 8.01603 13.4351 7.94893 11.4185 8.55052C11.9516 5.92205 14.1365 3.80955 16.6721 2.78222C19.2076 1.7549 22.0465 1.69011 24.7717 1.98859" fill="#AA4F7A"/>
<path d="M16.916 16.3364C16.9172 16.3202 16.9172 16.304 16.916 16.2878C16.9084 16.2239 16.8879 16.1622 16.8558 16.1061C16.8236 16.0499 16.7804 16.0006 16.7287 15.9608C16.6769 15.921 16.6177 15.8916 16.5542 15.8743C16.4908 15.8569 16.4245 15.852 16.3592 15.8598L11.0392 16.4706C10.9265 16.4841 10.8219 16.5344 10.7423 16.6134C10.6627 16.6924 10.6128 16.7954 10.6008 16.9056L9.65293 25.7698C9.63962 25.8988 9.67892 26.0277 9.76232 26.1286C9.84571 26.2295 9.96647 26.2943 10.0984 26.3089H10.1529C10.2768 26.3084 10.3961 26.2632 10.488 26.1821C10.5798 26.1009 10.6377 25.9895 10.6506 25.8692L11.5629 17.3961L16.281 16.8524C16.3216 16.7141 16.4039 16.591 16.5172 16.499C16.6304 16.4069 16.7694 16.3503 16.916 16.3364Z" fill="#B9B5EC"/>
<path d="M19.9092 13.9603C19.8855 13.9603 19.8428 14.076 19.722 14.2588C19.5458 14.5173 19.2998 14.7232 19.0111 14.8534C18.8208 14.9427 18.6131 14.9908 18.402 14.9945C18.1651 14.9945 18.0371 14.9159 18.0821 14.6799C18.1272 14.4439 18.2764 14.1893 18.3689 13.9117C18.4784 13.6251 18.5725 13.3332 18.6509 13.0371C18.9329 12.0004 19.0418 10.9261 18.9731 9.85559C18.9186 9.03419 18.7741 8.54367 18.7362 8.55061C18.6983 8.55755 18.7622 9.05733 18.7646 9.86253C18.7707 10.9093 18.6369 11.9524 18.3665 12.9653C18.2836 13.2615 18.1982 13.5484 18.0987 13.8191C18.0513 13.9556 17.9968 14.0875 17.9471 14.2171C17.8866 14.3521 17.8421 14.4934 17.8144 14.6382C17.7979 14.7192 17.7979 14.8025 17.8144 14.8835C17.8334 14.9731 17.8816 15.0543 17.9518 15.1149C18.0798 15.2093 18.2406 15.2508 18.3997 15.2305C18.6425 15.2146 18.8787 15.1466 19.0916 15.0316C19.4 14.8715 19.6488 14.6205 19.8025 14.3143C19.921 14.0968 19.9234 13.9649 19.9092 13.9603Z" fill="#C45673"/>
<path d="M17.1669 11.0566C17.1243 11.0566 17.0911 11.4338 16.93 12.0169C16.841 12.3576 16.7229 12.6904 16.5769 13.0118C16.4909 13.1947 16.3844 13.3678 16.2593 13.5278C16.1447 13.6887 15.9777 13.8069 15.7854 13.8633C15.6973 13.891 15.6032 13.8948 15.5131 13.8744C15.423 13.8541 15.3402 13.8102 15.2735 13.7476C15.1431 13.6009 15.044 13.4301 14.9821 13.2455C14.8461 12.922 14.7452 12.5854 14.6811 12.2413C14.5816 11.649 14.6077 11.2672 14.5603 11.2626C14.5129 11.2579 14.4276 11.6397 14.4797 12.2668C14.5103 12.6347 14.59 12.9972 14.7167 13.345C14.7839 13.5682 14.9004 13.7743 15.0579 13.9489C15.1562 14.0493 15.2821 14.12 15.4205 14.1525C15.5582 14.1861 15.7022 14.1861 15.8399 14.1525C16.0981 14.081 16.3231 13.925 16.4773 13.7106C16.6136 13.5263 16.7266 13.3266 16.8138 13.1159C16.9594 12.7764 17.0674 12.4227 17.1361 12.0608C17.2451 11.4454 17.2025 11.0566 17.1669 11.0566Z" fill="#C45673"/>
<path d="M24.7714 10.853C24.7263 10.853 24.7429 11.288 24.6031 11.9567C24.5222 12.3443 24.3941 12.721 24.2216 13.0789C24.1247 13.2793 23.9878 13.4586 23.8187 13.6065C23.6431 13.7536 23.4199 13.8355 23.1884 13.8378C23.0755 13.8286 22.9658 13.7962 22.8666 13.7428C22.7674 13.6894 22.6808 13.6161 22.6126 13.5278C22.4656 13.356 22.348 13.1623 22.2642 12.954C22.1103 12.582 22.0014 12.1937 21.9396 11.7971C21.8329 11.1238 21.878 10.6934 21.8329 10.6888C21.7879 10.6841 21.6789 11.1122 21.7358 11.8225C21.7755 12.2423 21.8736 12.6549 22.0273 13.0488C22.1131 13.2903 22.2405 13.5156 22.404 13.7152C22.4979 13.8323 22.6162 13.9288 22.7509 13.9982C22.8857 14.0675 23.034 14.1083 23.186 14.1178C23.4887 14.12 23.7816 14.0128 24.0083 13.817C24.2105 13.6445 24.3722 13.4314 24.4823 13.1923C24.6524 12.8086 24.7673 12.4036 24.8235 11.9891C24.897 11.2857 24.8045 10.8507 24.7714 10.853Z" fill="#C45673"/>
<path d="M30.0464 17.94C30.0866 17.9169 29.935 17.6902 29.9136 17.2876C29.9043 17.0515 29.9413 16.8159 30.0227 16.5934C30.1238 16.3221 30.2686 16.0682 30.4516 15.8414C30.7884 15.416 31.203 15.0552 31.6743 14.7771C32.0393 14.5619 32.2904 14.4647 32.2786 14.4231C32.2667 14.3814 31.9895 14.4231 31.5795 14.6012C31.0442 14.8438 30.578 15.2108 30.2217 15.6702C30.0181 15.9237 29.8639 16.2115 29.7667 16.5194C29.6883 16.7751 29.6696 17.0447 29.7122 17.3084C29.7928 17.7619 30.025 17.9655 30.0464 17.94Z" fill="#C45673"/>
<path d="M30.3711 17.5998C30.383 17.6322 30.5489 17.6137 30.7456 17.4471C30.8689 17.3353 30.9682 17.2006 31.0373 17.0507C31.1065 16.9009 31.1443 16.7391 31.1484 16.5748C31.1541 16.2538 31.0626 15.9383 30.8854 15.6678C30.7503 15.4665 30.6318 15.3716 30.601 15.3925C30.5702 15.4133 30.6247 15.5498 30.7005 15.7557C30.8053 16.0134 30.8584 16.2883 30.8569 16.5656C30.847 16.8343 30.7564 17.0942 30.5963 17.3129C30.4707 17.4818 30.3522 17.5605 30.3711 17.5998Z" fill="#C45673"/>
<path d="M16.9086 17.1395C16.8068 17.1107 16.7077 17.0736 16.6124 17.0284C16.5152 16.9872 16.4327 16.9187 16.3754 16.8317C16.3673 16.818 16.363 16.8024 16.363 16.7866C16.363 16.7708 16.3673 16.7552 16.3754 16.7415C16.4007 16.7 16.4367 16.6657 16.4797 16.642C16.5294 16.6119 16.5958 16.5772 16.6645 16.5448L16.7688 16.4985L16.8494 16.4661C16.8795 16.446 16.9066 16.4219 16.9299 16.3944C16.9465 16.3736 16.9702 16.3389 16.9939 16.3019C16.9932 16.207 16.954 16.1163 16.8849 16.0497L16.8138 16.015L16.783 15.9918L16.7285 15.9548C16.6938 15.9304 16.6606 15.9042 16.629 15.8761C16.5659 15.8212 16.508 15.7608 16.456 15.6956C16.4072 15.634 16.3628 15.569 16.3233 15.5013C16.2996 15.4411 16.3067 15.4504 16.3233 15.4296C16.3701 15.3981 16.4252 15.3804 16.4821 15.3787C16.5531 15.3752 16.6243 15.3752 16.6953 15.3787L17.11 15.3925C17.6195 15.3925 17.937 15.3925 17.9394 15.3509C17.9418 15.3092 17.6314 15.2537 17.1266 15.1936L16.7119 15.1473H16.5982C16.5532 15.1449 16.5081 15.1449 16.4631 15.1473C16.3535 15.1469 16.2466 15.1801 16.1574 15.2421C16.0963 15.2887 16.0563 15.3568 16.046 15.4319C16.0376 15.4994 16.05 15.5679 16.0816 15.6285C16.1244 15.7171 16.1768 15.8009 16.238 15.8784C16.2989 15.9612 16.3671 16.0386 16.4418 16.1098C16.4797 16.1422 16.52 16.1769 16.5626 16.207L16.6266 16.251L16.655 16.2695L16.546 16.3227C16.4749 16.3597 16.4062 16.3967 16.3304 16.4453C16.2483 16.4999 16.1828 16.575 16.1408 16.6628C16.1206 16.7122 16.1124 16.7655 16.1169 16.8185C16.1214 16.8715 16.1385 16.9228 16.1669 16.9682C16.2543 17.0887 16.3776 17.18 16.52 17.2297C16.5791 17.2538 16.6401 17.2732 16.7024 17.2875L16.8588 17.3222C17.2569 17.4032 17.501 17.4379 17.5105 17.4032C17.52 17.3685 17.2878 17.269 16.9086 17.1395Z" fill="#C45673"/>
<path d="M16.7427 26.4224L4.29712 27.1535L6.19287 42.9197C6.21315 43.0859 6.29849 43.2379 6.431 43.344C6.56352 43.4501 6.73294 43.5021 6.90378 43.4889L14.8446 43.0053C15.0041 42.9958 15.1547 42.9304 15.2687 42.8212C15.3828 42.7119 15.4527 42.5662 15.4655 42.4107L16.7427 26.4224Z" fill="#F9A353"/>
<path d="M5.84015 40.037L15.8616 37.2928L16.5583 28.7063L4.86621 31.9063L5.84015 40.037Z" fill="#F7BF54"/>
<g style="mix-blend-mode:multiply" opacity="0.14">
<g style="mix-blend-mode:multiply" opacity="0.14">
<path d="M4.29712 27.1535L6.19287 42.9197C6.21315 43.0859 6.29849 43.2379 6.431 43.344C6.56352 43.4501 6.73294 43.502 6.90378 43.4889L13.2238 43.1048C11.5351 40.713 10.2153 38.0921 9.30665 35.3258C8.42235 32.6137 8.03568 29.7703 8.16446 26.9268L4.29712 27.1535Z" fill="#F9A353"/>
</g>
</g>
<path d="M16.7541 24.9976L3.61526 25.7868C3.32265 25.8044 3.10004 26.0502 3.11804 26.3359L3.16809 27.1304C3.18609 27.4161 3.43788 27.6334 3.73049 27.6159L16.8693 26.8267C17.1619 26.8091 17.3845 26.5633 17.3665 26.2776L17.3165 25.4831C17.2985 25.1974 17.0467 24.9801 16.7541 24.9976Z" fill="#F7BF54"/>
<g style="mix-blend-mode:multiply" opacity="0.2">
<g style="mix-blend-mode:multiply" opacity="0.2">
<path d="M38.9803 40.9274C38.8011 38.997 38.4038 37.092 37.7955 35.247C37.3215 33.7962 36.8903 32.054 35.7339 30.9896C34.4234 29.7841 32.7457 29.6569 31.2599 30.2955L28.2788 35.4552C28.4533 36.5161 28.7721 37.5495 29.2267 38.528C29.7646 39.7751 30.3547 41.0269 30.7054 42.3272C32.3417 42.5978 33.9964 42.7486 35.6557 42.7784C36.8171 42.8134 37.9791 42.7359 39.1249 42.547C39.0704 41.9871 39.0254 41.4572 38.9803 40.9274Z" fill="#FF8DA8"/>
</g>
</g>
<path d="M28.9467 40.8695C32.1339 41.5637 36.0557 41.3994 39.1363 39.9255C39.0463 39.0578 38.0013 36.0291 37.9041 35.7121C37.2098 33.4191 36.7192 31.0105 34.8709 29.4648C33.2121 28.0581 30.9514 27.7087 29.2026 29.1548C28.8119 29.4939 28.4861 29.8982 28.2405 30.3487C26.9443 32.5931 27.468 35.8185 28.167 38.1925C28.423 39.0841 28.6828 39.9764 28.9467 40.8695Z" fill="#DB5449"/>
<path d="M32.0962 25.3463C31.5512 24.164 32.0346 23.0187 31.345 21.8756C30.9801 21.2764 30.3166 20.7187 30.0843 20.0431C29.8758 19.4485 29.8829 18.6548 29.8261 18.0139C29.6675 16.2682 29.802 14.5089 30.2242 12.8055C30.2539 12.7153 30.2644 12.62 30.255 12.5256C30.2165 12.3971 30.1408 12.2822 30.037 12.1947C29.3217 11.4745 28.6575 10.7076 28.0488 9.89941L28.6459 13.0138C28.582 13.6524 28.4967 14.2841 28.3948 14.9319C28.223 16.1714 27.8711 17.3805 27.3497 18.5229C26.1388 21.0103 25.3734 24.2496 26.6128 26.8873C27.1222 27.9679 28.1459 28.8703 29.3569 28.9929C30.8948 29.1456 32.4517 28.0674 33.9185 28.5301C33.2195 27.5214 32.6098 26.4563 32.0962 25.3463Z" fill="#AA4F7A"/>
<path d="M16.3994 48.9632C14.2667 47.8619 11.1008 45.7957 11.4657 43.0353C11.5587 42.1779 11.8049 41.3431 12.1932 40.5688C12.5226 39.9788 12.9041 39.4489 12.57 38.7339C12.3496 38.2712 11.8046 37.9426 11.4183 37.6187C10.9328 37.2338 10.5101 36.7789 10.1647 36.2697C10.1396 36.2403 10.1223 36.2053 10.1144 36.1677C10.1066 36.1301 10.1084 36.0913 10.1197 36.0546C10.3377 35.6774 11.8946 36.4965 12.1411 36.6492C12.8305 37.0696 13.3977 37.656 13.788 38.3522C13.7453 38.2735 13.8141 37.9704 13.8022 37.8616C13.7718 37.7018 13.7209 37.5463 13.6506 37.3989C13.5495 37.0764 13.426 36.7609 13.2809 36.4549C12.9397 35.8116 12.4539 35.2563 12.051 34.6524C11.9474 34.515 11.8762 34.357 11.8425 34.1896C11.8265 34.1071 11.8354 34.0218 11.8683 33.9441C11.9011 33.8665 11.9564 33.7998 12.0273 33.7523C12.2643 33.6205 12.551 33.8102 12.7524 33.9837C13.1908 34.3678 13.7382 34.7982 14.0036 35.3257C14.3164 35.9458 14.4918 36.6839 14.7146 37.3387C14.9515 37.3873 14.6648 35.8024 14.615 35.6589C14.4515 35.1799 14.4065 34.7473 14.115 34.3285C13.7359 33.787 13.243 33.2456 13.2406 32.5885C13.2328 32.5183 13.243 32.4472 13.2703 32.3818C13.2976 32.3163 13.3411 32.2586 13.397 32.2137C13.5913 32.0957 13.8307 32.2669 13.9823 32.4335C15.0605 33.6297 15.4349 35.2239 15.6221 36.7765L16.243 34.4071C16.2928 34.222 16.4113 33.9907 16.6032 34.03C16.6645 34.0482 16.7195 34.0826 16.762 34.1295C17.2975 34.6732 17.1079 35.4692 16.9705 36.124C16.8117 36.8829 16.6909 37.6511 16.589 38.4193C16.4989 39.0926 16.352 39.7613 16.3259 40.4415C16.2951 41.0524 16.6577 41.4341 17.198 41.7349C17.4922 41.8717 17.7983 41.9824 18.1127 42.0658C18.4421 42.1792 18.7407 42.3689 19.0795 42.4707" fill="#FF8DA8"/>
<path d="M34.132 11.6767C32.132 11.045 29.7575 10.9987 27.6793 11.008H27.6604C27.3665 8.8168 25.7646 7.13467 23.8452 7.13467C22.0371 7.13467 20.5276 8.62013 20.1011 10.6169C19.7998 10.3432 19.4036 10.1911 18.992 10.1911C18.5805 10.1911 18.1843 10.3432 17.883 10.6169C17.5228 8.53452 15.9612 6.94263 14.0915 6.94263C11.9588 6.94263 10.2266 9.00422 10.2266 11.5378C10.2266 14.0714 11.9588 16.133 14.0915 16.133C16.2242 16.133 17.9565 14.0714 17.9565 11.5378C17.9565 11.4661 17.9565 11.3967 17.9565 11.325C18.0417 11.1275 18.1852 10.9592 18.3687 10.8418C18.5523 10.7243 18.7675 10.6628 18.987 10.6653C19.2064 10.6678 19.4202 10.7341 19.6009 10.8557C19.7816 10.9773 19.9211 11.1487 20.0015 11.3481C20.0015 11.4754 19.9849 11.6026 19.9849 11.7322C19.9849 14.2774 21.7196 16.3274 23.8499 16.3274C25.9803 16.3274 27.7149 14.2635 27.7149 11.7299C27.7149 11.6489 27.7149 11.5725 27.7149 11.4985C29.2439 11.4902 30.7714 11.5969 32.2836 11.8178C32.8642 11.9034 33.4401 12.0191 34.0135 12.1487C35.2149 12.4217 35.4353 13.5624 35.4922 14.5689C35.5112 14.8813 36.0135 14.8836 35.9922 14.5689C35.8903 13.2269 35.5349 12.114 34.132 11.6767ZM14.0963 15.543C12.2953 15.543 10.8332 13.7452 10.8332 11.5355C10.8332 9.32584 12.2953 7.52802 14.0963 7.52802C15.8972 7.52802 17.3593 9.32584 17.3593 11.5355C17.3593 13.7452 15.8949 15.543 14.0963 15.543ZM23.8452 15.7374C22.0466 15.7374 20.5821 13.9396 20.5821 11.7299C20.5821 9.5202 22.0466 7.72238 23.8452 7.72238C25.6438 7.72238 27.1106 9.5202 27.1106 11.7299C27.1106 13.9396 25.6461 15.7374 23.8452 15.7374Z" fill="#F7BF54"/>
</svg>
