<svg width="278" height="304" viewBox="0 0 278 304" fill="none" xmlns="http://www.w3.org/2000/svg">
<path d="M132.427 292.775C205.42 292.775 264.88 266.252 276.611 192.261C288.342 118.27 186.894 152.727 188.78 85.6441C190.666 18.5889 168.313 -20.3903 107.106 11.0705C45.8995 42.5312 55.1623 108.782 46.1213 139.521C28.5386 199.169 -68.3885 292.775 132.427 292.775Z" fill="#98BFFD"/>
<path d="M38.6046 145.905C45.0256 128.073 44.1915 111.442 36.7416 108.757C29.2918 106.072 18.0472 118.351 11.6262 136.183C5.20524 154.014 6.03931 170.646 13.4892 173.33C20.939 176.015 32.1836 163.736 38.6046 145.905Z" fill="#98BFFD"/>
<path d="M251.779 110.372C261.329 102.023 259.87 84.7228 248.52 71.7315C237.17 58.7403 220.228 54.977 210.678 63.3262C201.128 71.6753 202.588 88.9751 213.938 101.966C225.287 114.958 242.23 118.721 251.779 110.372Z" fill="#98BFFD"/>
<path d="M177.327 44.2235C177.327 44.2235 168.091 44.168 166.344 57.1241C164.597 70.0802 167.093 75.823 160.798 81.6768C154.502 87.5306 164.819 90.8043 173.277 85.2557C181.764 79.707 177.327 44.2235 177.327 44.2235Z" fill="#3B2645"/>
<path d="M177.326 44.2235C177.326 44.2235 168.84 48.8289 168.674 61.7849C168.535 73.2429 171.475 82.1207 166.982 87.8358C169.006 87.4474 171.197 86.6151 173.277 85.2557C181.764 79.707 177.326 44.2235 177.326 44.2235Z" fill="#3B2645"/>
<path d="M188.309 73.881L185.341 86.1712L166.344 84.7008C166.344 84.7008 171.17 77.1547 173.721 64.0876L188.309 73.881Z" fill="#FFEDE5"/>
<path d="M177.049 69.6639L186.589 81.0664L188.309 73.8809L177.049 69.6639Z" fill="#DF845C"/>
<path d="M198.431 47.9689C198.431 47.9689 202.092 53.1014 200.484 58.4004C198.875 63.6993 198.958 64.6148 198.681 66.5846C198.404 68.5266 193.689 77.4322 191.443 77.7651C189.196 78.098 175.552 72.7436 172.861 65.1974C170.171 57.6513 187.92 36.6774 198.431 47.9689Z" fill="#FFEDE5"/>
<path d="M172.945 67.6943L176.661 61.785L178.353 62.4508C178.353 62.4508 179.767 62.0624 180.349 56.708C180.349 56.708 184.592 54.9047 185.397 50.7987C185.397 50.7987 199.596 41.366 200.9 55.9034C200.9 55.9034 203.035 49.2451 196.629 44.7229C190.222 40.2008 182.152 38.8969 177.049 42.6977C171.946 46.4985 163.82 59.7043 172.945 67.6943Z" fill="#3B2645"/>
<path d="M176.933 65.596C178.508 64.8421 178.82 62.2141 177.63 59.7261C176.44 57.2381 174.199 55.8324 172.624 56.5863C171.049 57.3402 170.736 59.9682 171.926 62.4562C173.116 64.9442 175.358 66.3499 176.933 65.596Z" fill="#FFEDE5"/>
<path d="M176.356 63.2832C176.273 63.2832 176.189 63.2555 176.134 63.1723L174.359 60.7309C174.276 60.6199 174.304 60.4257 174.415 60.3425C174.525 60.2592 174.72 60.287 174.803 60.3979L176.578 62.8393C176.661 62.9503 176.633 63.1445 176.522 63.2277C176.467 63.2555 176.411 63.2832 176.356 63.2832Z" fill="#472938"/>
<path d="M188.198 68.8595C188.198 68.8595 190.444 70.4131 194.022 70.5518C194.022 70.5518 190.139 71.3564 188.198 68.8595Z" fill="#472938"/>
<path d="M194.05 67.5834C193.439 67.5834 192.857 67.5001 192.386 67.2504C192.247 67.1672 192.191 67.0007 192.275 66.8898C192.358 66.7511 192.524 66.6956 192.635 66.7788C193.8 67.3614 196.046 66.862 196.324 66.5291C196.351 66.2517 195.935 65.0032 195.658 64.1987C195.409 63.4774 195.187 62.8115 195.103 62.3399C194.798 61.036 196.13 59.4269 196.185 59.3436C196.296 59.2327 196.462 59.2049 196.573 59.3159C196.684 59.4269 196.712 59.5933 196.601 59.7043C196.268 60.1204 195.436 61.3689 195.63 62.2289C195.741 62.6728 195.963 63.3664 196.185 64.0322C196.74 65.6691 196.962 66.4181 196.823 66.7511C196.74 66.9453 196.546 67.084 196.157 67.2504C195.714 67.4169 194.882 67.5834 194.05 67.5834Z" fill="#472938"/>
<path d="M200.151 59.621C200.151 59.621 200.955 58.9275 200.206 58.4836C199.458 58.0397 198.154 58.1507 197.988 58.5668C197.821 58.983 197.766 59.2326 198.32 59.2604C198.903 59.2881 200.068 58.983 200.151 59.621Z" fill="#472938"/>
<path d="M185.397 57.3184C185.397 57.3184 187.588 56.181 189.168 56.6526C190.749 57.1242 191.11 57.7901 191.886 57.5959C192.663 57.3739 191.969 56.1255 190.25 55.6539C188.531 55.1822 186.146 55.9035 185.397 57.3184Z" fill="#472938"/>
<path d="M188.337 61.2302C188.004 61.1747 187.782 60.8695 187.81 60.5366L187.893 60.065C187.948 59.7321 188.253 59.5101 188.586 59.5379C188.919 59.5933 189.141 59.8985 189.113 60.2314L189.03 60.7031C188.974 61.036 188.669 61.2857 188.337 61.2302Z" fill="#472938"/>
<path d="M197.405 62.3398C197.128 62.3121 196.961 62.0624 196.989 61.785L197.045 61.3966C197.072 61.1191 197.322 60.9527 197.599 60.9804C197.877 61.0082 198.043 61.2579 198.015 61.5353L197.96 61.9237C197.932 62.2011 197.683 62.3676 197.405 62.3398Z" fill="#472938"/>
<path d="M211.937 288.336C213.13 289.335 214.655 290.638 215.876 288.558C215.737 287.226 215.903 283.065 215.903 283.065L205.42 283.647L206.003 288.003C206.003 287.975 210.745 287.337 211.937 288.336Z" fill="#FFEDE5"/>
<path d="M215.071 300.016C216.763 299.405 220.424 295.715 221.173 294.939C220.923 293.718 220.341 292.497 219.564 292.358C218.427 292.192 216.014 289.862 215.876 288.53C214.628 290.638 213.13 289.334 211.937 288.308C210.745 287.309 206.003 287.947 206.003 287.947C206.003 287.947 204.449 295.91 204.283 300.043C206.64 300.21 213.518 300.598 215.071 300.016Z" fill="#3B2645"/>
<path d="M204.588 302.429C205.781 303.456 214.322 303.151 215.21 302.901C216.097 302.651 220.424 298.379 221.062 297.352C221.339 296.908 221.367 295.91 221.145 294.939C220.396 295.715 216.735 299.405 215.044 300.016C213.49 300.571 206.585 300.21 204.255 300.071C204.255 301.32 204.311 302.207 204.588 302.429Z" fill="#E5E5E5"/>
<path d="M146.099 288.225C148.789 288.585 149.455 290.167 150.287 290.084C151.119 290 153.032 288.336 153.032 288.336C153.032 287.115 154.253 283.065 154.253 283.065L143.187 283.425L141.995 288.918C142.022 288.918 143.437 287.864 146.099 288.225Z" fill="#FFEDE5"/>
<path d="M153.642 296.548C154.724 296.131 155.695 295.216 156.305 294.606C156.277 293.607 156 292.469 155.223 292.026C153.892 291.276 153.06 288.336 153.06 288.336C153.06 288.336 151.146 289.973 150.314 290.083C149.482 290.194 148.789 288.613 146.127 288.225C143.437 287.864 142.05 288.918 142.05 288.918C141.052 291.804 140.636 296.27 140.525 298.85C141.884 299.128 144.102 299.461 147.181 299.461C152.755 299.433 151.923 297.186 153.642 296.548Z" fill="#3B2645"/>
<path d="M140.497 300.765C140.636 301.209 141.052 302.429 147.264 302.429C153.476 302.429 153.282 299.35 153.698 298.351C154.142 297.325 155.806 296.686 156.083 296.187C156.194 295.965 156.305 295.327 156.277 294.606C155.695 295.216 154.696 296.132 153.615 296.548C151.895 297.186 152.755 299.461 147.125 299.461C144.047 299.461 141.828 299.128 140.469 298.85C140.442 299.905 140.442 300.654 140.497 300.765Z" fill="#E5E5E5"/>
<path d="M204.782 139.299C204.782 139.299 212.353 156.611 214.378 170.289C216.402 183.966 212.076 221.031 212.714 224.193C213.352 227.356 216.901 237.066 217.428 250.106C217.928 263.145 215.903 283.037 215.903 283.037C215.903 283.037 209.746 285.783 205.42 283.619C205.42 283.619 202.064 262.424 200.206 253.518C198.348 244.612 198.348 234.181 196.296 229.298C194.244 224.415 188.919 190.097 187.393 184.576C187.393 184.576 181.764 212.153 176.55 224.526C171.336 236.9 169.894 238.204 168.313 245.334C166.732 252.464 155.584 278.265 154.28 283.065C154.28 283.065 148.262 286.116 143.215 283.425C143.215 283.425 146.182 251.909 151.507 239.425C156.832 226.94 157.47 226.607 158.662 217.507C159.855 208.408 154.946 168.652 168.258 143.239C168.23 143.211 186.894 139.161 204.782 139.299Z" fill="#EE87E4"/>
<path d="M187.393 140.243C188.614 145.569 204.727 169.817 204.727 169.817L195.325 139.521L187.393 140.243Z" fill="#543753"/>
<path d="M180.349 177.668C180.349 177.668 182.79 183.439 194.937 182.634C194.937 182.634 188.281 184.105 188.891 191.956L187.394 184.604L185.702 192.372C185.702 192.372 186.146 184.659 177.465 181.996L183.15 182.163C183.178 182.135 180.377 180.137 180.349 177.668Z" fill="#543753"/>
<path d="M162.378 85.5608C162.378 85.5608 158.274 88.9732 146.21 107.506C134.146 126.038 137.252 127.037 139.221 129.756C141.163 132.475 155.778 147.789 156.86 149.176C157.941 150.591 161.935 154.808 164.07 153.115C166.206 151.423 165.512 146.568 167.897 144.737C170.282 142.878 172.279 141.019 172.473 140.021C172.667 139.022 172.168 138.19 171.946 138.19C171.724 138.19 169.312 140.27 167.842 140.992C166.372 141.713 162.933 144.21 162.878 144.21C162.822 144.21 149.76 124.512 149.76 124.512L164.292 107.173L162.378 85.5608Z" fill="#FFEDE5"/>
<path d="M162.656 91.8308C162.656 91.8308 157.276 98.4059 158.718 114.053L164.347 107.367L162.656 91.8308Z" fill="#DF845C"/>
<path d="M147.846 139.383L153.31 129.811L149.954 124.706L147.042 138.523L147.846 139.383Z" fill="#DF845C"/>
<path d="M182.124 82.2871C185.674 83.1472 195.02 88.3629 200.899 99.2937C206.779 110.224 204.699 112.167 202.452 115.301L201.593 129.34L205.364 141.075L168.258 143.239C168.258 143.239 171.142 131.143 169.644 127.314C168.147 123.486 151.895 101.846 160.908 87.5028C165.484 80.1509 182.124 82.2871 182.124 82.2871Z" fill="#FFEDE5"/>
<path d="M201.593 129.312L202.453 115.274C204.699 112.167 206.807 110.197 200.899 99.266C199.457 96.6026 197.821 94.2722 196.102 92.2469C195.797 96.5194 194.909 101.624 192.829 106.923C188.142 118.936 169.339 118.215 164.32 117.798C166.732 122.404 169.062 125.927 169.589 127.259C169.866 127.952 170.005 128.923 170.033 130.033C184.26 131.393 201.593 129.312 201.593 129.312Z" fill="#AB8DA8"/>
<path d="M182.429 82.3706C182.318 82.3428 182.207 82.3151 182.124 82.2873C182.124 82.2873 181.875 82.2596 181.459 82.2041C175.385 83.8687 170.643 87.6418 167.481 93.3569C166.427 89.6393 165.845 86.1714 166.205 83.5358C166.15 83.5635 166.095 83.5913 166.039 83.5913C165.9 83.6467 165.762 83.7022 165.623 83.7577C165.124 83.9519 164.652 84.1739 164.209 84.4236C161.103 87.7805 160.021 94.0504 160.992 103.15C161.435 107.228 162.212 111.14 162.905 114.136C162.905 114.414 162.905 114.691 162.905 114.969C163.044 115.246 163.155 115.496 163.294 115.773C163.349 115.912 163.432 116.051 163.488 116.189C163.82 116.855 164.153 117.493 164.486 118.131C164.236 117.216 163.848 115.801 163.46 114.081C163.46 110.835 163.737 106.202 164.958 101.458C165.568 99.0165 166.372 96.8247 167.343 94.8272C170.615 105.453 177.326 117.382 177.742 118.104L178.547 119.519L178.269 117.91C178.242 117.743 175.33 101.347 177.354 91.6923C178.63 85.6165 180.571 83.4525 181.791 82.6757C182.124 82.5925 182.429 82.5093 182.762 82.4538C182.651 82.4261 182.54 82.3983 182.429 82.3706ZM164.403 101.347C163.432 105.092 163.072 108.782 162.961 111.778C161.103 102.928 159.383 88.8347 165.623 83.9242C165.346 86.7262 166.011 90.3051 167.121 94.1059C165.984 96.2699 165.096 98.6835 164.403 101.347ZM176.772 91.609C175.108 99.5713 176.744 112.028 177.437 116.439C175.496 112.805 170.338 102.873 167.703 94.1059C170.587 88.585 174.83 84.9229 180.405 83.0919C179.185 84.3681 177.77 86.8372 176.772 91.609Z" fill="#AB8DA8"/>
<path d="M183.65 128.452H169.866C169.7 128.452 169.589 128.341 169.589 128.174C169.589 128.008 169.7 127.897 169.866 127.897H183.65C183.816 127.897 183.927 128.008 183.927 128.174C183.927 128.341 183.788 128.452 183.65 128.452Z" fill="#472938"/>
<path d="M187.893 142.074L195.824 141.602L191.748 130.144C189.806 130.255 187.699 130.366 185.452 130.422C186.201 134.888 187.005 139.022 187.893 142.074Z" fill="#DF845C"/>
<path d="M182.207 103.289C182.207 103.289 182.679 108.671 183.455 115.634C184.371 115.274 185.286 114.858 186.145 114.358L182.207 103.289Z" fill="#DF845C"/>
<path d="M183.483 115.635C184.01 120.24 184.676 125.511 185.48 130.449C187.699 130.394 189.834 130.283 191.775 130.172L186.173 114.386C185.286 114.858 184.398 115.274 183.483 115.635Z" fill="#543753"/>
<path d="M170.088 143.1L170.865 143.045C170.865 143.045 172.113 141.963 172.362 140.548C172.029 141.214 171.17 142.129 170.088 143.1Z" fill="#DF845C"/>
<path d="M182.734 82.4537C182.734 82.4537 194.41 84.8119 196.074 90.4438C197.766 96.0756 199.014 129.312 199.014 129.312C199.014 129.312 210.689 162.465 211.937 167.514C213.185 172.564 215.792 180.692 215.959 182.329C216.125 183.966 214.517 187.739 213.962 188.349C213.407 188.96 210.079 190.208 209.33 190.375C208.582 190.541 204.061 187.573 204.283 186.962C204.505 186.352 206.308 185.27 206.308 185.27L206.64 183.023C206.64 183.023 203.396 176.697 203.617 173.479C203.839 170.289 203.34 168.208 202.259 166.266C201.177 164.324 188.17 135.249 186.839 130.172C185.508 125.095 181.653 102.429 181.736 98.1564C181.819 93.8839 182.734 82.4537 182.734 82.4537Z" fill="#FFEDE5"/>
<path d="M109.852 42.6145L112.182 55.4873C112.487 57.1797 113.651 58.5946 115.26 59.2327L120.418 61.2579C120.418 61.2579 114.983 69.3867 104.083 71.6893C93.1844 73.9643 87.2218 64.0877 87.2218 64.0877L91.8255 60.6476C92.8516 59.8708 93.4063 58.6501 93.3231 57.3739L92.4911 45.4166L109.852 42.6145Z" fill="#FFEDE5"/>
<path d="M93.1288 54.3776C93.1288 54.3776 106.191 62.0902 109.852 42.6145L92.5187 45.3888L93.1288 54.3776Z" fill="#DF845C"/>
<path d="M113.606 38.527C114.098 36.4392 113.53 34.5186 112.338 34.2371C111.145 33.9557 109.779 35.42 109.287 37.5079C108.795 39.5957 109.362 41.5164 110.555 41.7978C111.748 42.0792 113.113 40.6149 113.606 38.527Z" fill="#FFEDE5"/>
<path d="M90.7189 44.1978C91.78 43.5849 91.7711 41.5821 90.6989 39.7245C89.6268 37.8668 87.8974 36.8577 86.8363 37.4706C85.7751 38.0835 85.7841 40.0862 86.8562 41.9439C87.9284 43.8016 89.6578 44.8106 90.7189 44.1978Z" fill="#DF845C"/>
<path d="M110.739 39.1744C110.684 39.1744 110.656 39.1744 110.601 39.1467C110.462 39.0634 110.407 38.897 110.49 38.786L111.46 36.8995C111.544 36.7608 111.71 36.7053 111.821 36.7885C111.96 36.8717 112.015 37.0382 111.932 37.1492L110.961 39.0357C110.934 39.1189 110.85 39.1744 110.739 39.1744Z" fill="#472938"/>
<path d="M89.8565 41.7822C89.801 41.7822 89.7178 41.7545 89.6623 41.699L87.7765 39.9512C87.6656 39.8402 87.6656 39.6738 87.7488 39.5628C87.8597 39.4518 88.0261 39.4518 88.137 39.535L90.0229 41.2829C90.1338 41.3938 90.1338 41.5603 90.0506 41.6713C89.9951 41.7545 89.9119 41.7822 89.8565 41.7822Z" fill="#472938"/>
<path d="M85.7519 29.7416C85.7519 29.7416 90.3002 46.6649 92.0196 49.1063C93.7113 51.52 98.9529 53.7672 99.8403 53.9059C100.728 54.0446 104.25 53.684 105.054 52.9904C105.858 52.2968 110.185 47.7192 110.85 44.7507C111.488 41.7821 111.655 26.1072 108.909 23.2497C106.136 20.3921 84.3653 22.7226 85.7519 29.7416Z" fill="#FFEDE5"/>
<path d="M100.007 41.7822C99.3133 41.7822 98.0931 41.4215 97.9267 41.3383C97.7048 41.2273 97.6771 41.2273 97.7603 36.3445C97.7603 36.0116 97.7603 35.7619 97.7603 35.6787C97.7325 35.4568 97.0669 34.3193 96.4845 33.376C96.4013 33.2373 96.4291 33.0708 96.5677 32.9876C96.7064 32.9044 96.8728 32.9321 96.956 33.0708C97.4552 33.8754 98.3427 35.2626 98.3427 35.651C98.3427 35.7342 98.3427 35.9839 98.3427 36.3168C98.3149 37.3155 98.2872 40.1731 98.3149 40.8389C98.6477 40.9499 99.5906 41.1996 100.062 41.1718C100.45 41.1441 101.06 40.6725 101.338 40.395C101.449 40.2841 101.615 40.2841 101.726 40.395C101.837 40.506 101.837 40.6725 101.726 40.7834C101.643 40.8667 100.783 41.699 100.09 41.7267C100.062 41.7822 100.034 41.7822 100.007 41.7822Z" fill="#472938"/>
<path d="M96.5677 44.7228L104.278 43.6686C104.278 43.6686 103.695 47.2197 100.95 47.8301C98.204 48.4404 96.5677 44.7228 96.5677 44.7228Z" fill="white"/>
<path d="M104.222 34.8465C103.751 34.902 103.335 34.569 103.279 34.0974L103.224 33.4593C103.168 32.9877 103.501 32.5715 103.972 32.516C104.444 32.4606 104.86 32.7935 104.915 33.2651L104.971 33.9032C105.054 34.3748 104.694 34.791 104.222 34.8465Z" fill="#472938"/>
<path d="M93.4339 36.7883C92.9624 36.8715 92.5187 36.5664 92.4355 36.0947L92.3246 35.4566C92.2414 34.985 92.5464 34.5411 93.0179 34.4579C93.4894 34.3746 93.9331 34.6798 94.0163 35.1515L94.1272 35.7896C94.2104 36.2612 93.9054 36.7051 93.4339 36.7883Z" fill="#472938"/>
<path d="M101.338 30.9346C101.338 30.9346 105.331 29.5197 107.467 30.7682C107.467 30.7682 107.106 29.0204 104.915 29.1036C102.725 29.1868 101.31 29.492 101.088 30.0191C100.866 30.5462 101.338 30.9346 101.338 30.9346Z" fill="#472938"/>
<path d="M95.403 32.0167C95.403 32.0167 91.1876 31.6283 89.4404 33.3761C89.4404 33.3761 89.3572 31.5728 91.4926 31.1289C93.6281 30.685 95.0702 30.6295 95.403 31.0734C95.7635 31.5451 95.403 32.0167 95.403 32.0167Z" fill="#472938"/>
<path d="M88.442 39.1465L87.6378 32.1552C87.6378 32.1552 94.2659 32.8487 99.2579 27.7995C104.25 22.7502 107.716 25.58 107.716 25.58L111.183 35.0405L112.015 34.1804C112.015 34.1804 112.209 25.3581 112.015 25.0529C111.821 24.7477 110.351 23.8322 110.351 23.8322C110.351 23.8322 109.88 15.2318 99.2024 13.5395C88.5252 11.8472 85.6964 23.0277 82.5903 23.4716L83.8383 25.0529C83.8383 25.0529 83.4223 26.3291 83.4501 27.9105C83.4778 29.4918 86.8612 37.4819 86.8612 37.4819L88.442 39.1465Z" fill="#3B2645"/>
<path d="M73.6325 68.6929C73.6325 68.6929 67.3371 70.4962 67.6144 83.6187C67.6144 83.6187 61.3745 92.9959 60.6812 104.204C60.6812 104.204 45.428 90.1939 44.901 88.4738C44.3464 86.726 44.6515 80.5947 44.2909 79.0966C43.9304 77.5985 42.5992 76.0171 42.7656 73.9086C42.932 71.8001 43.2925 68.8316 43.0984 68.5264C42.9043 68.2213 39.9923 68.5542 39.4931 70.9678C38.9939 73.3815 38.8552 76.1281 38.8552 76.1281C38.8552 76.1281 34.1684 77.2933 33.586 78.1533C33.0036 79.0134 33.3364 81.2883 33.3364 81.2883C33.3364 81.2883 33.4473 88.9454 34.2238 89.8055C35.0003 90.6655 38.7166 92.552 39.4931 93.0791C40.2696 93.6063 49.0333 113.776 52.8327 118.353C56.6321 122.931 60.1542 124.207 63.4545 123.125C66.7547 122.043 75.8789 109.725 78.8186 104.01C81.7583 98.2949 80.6767 69.3587 73.6325 68.6929Z" fill="#FFEDE5"/>
<path d="M80.2051 87.7526C76.8494 86.9203 74.6585 87.4197 74.6585 87.4197C74.6585 87.4197 79.1236 103.566 72.218 114.053C74.9359 110.447 77.4873 106.562 78.7908 104.038C80.0387 101.569 80.5657 94.7439 80.2051 87.7526Z" fill="#DF845C"/>
<path d="M60.6533 104.204L63.2602 106.119L60.7643 103.011L60.6533 104.204Z" fill="#DF845C"/>
<path d="M35.5272 78.0146C35.5272 78.0146 40.2696 78.3753 40.5192 78.6527C40.7688 78.9302 41.157 88.7235 40.2696 89.3893C39.3544 90.0829 34.8062 89.9719 34.8062 89.9719C34.8062 89.9719 40.2418 90.4713 40.8242 90.2216C41.4066 89.972 42.4605 86.5318 42.6546 84.7562C42.8487 82.9807 41.7394 78.2921 41.3234 78.1811C40.9074 78.0701 35.5272 78.0146 35.5272 78.0146Z" fill="#DF845C"/>
<path d="M133.896 274.548C134.091 268.444 134.728 259.483 134.618 251.188C134.451 239.258 133.259 225.831 132.676 221.919C132.066 218.007 133.48 199.891 133.48 199.891L108.41 203.386C109.02 205.328 113.568 222.363 113.762 229.798C113.984 237.233 123.108 271.856 123.469 274.631C123.524 274.991 123.552 275.38 123.607 275.768C125.909 276.046 130.319 276.268 133.896 274.548Z" fill="#FFEDE5"/>
<path d="M126.131 283.398C126.131 283.398 125.854 280.429 129.182 279.708C132.51 278.986 134.035 280.651 134.035 280.651C133.841 279.347 133.841 277.211 133.924 274.547C130.347 276.268 125.937 276.046 123.663 275.768C123.885 277.932 123.94 280.512 123.718 282.621C124.079 283.564 126.131 283.398 126.131 283.398Z" fill="white"/>
<path d="M122.637 296.048C126.187 297.907 125.161 302.069 129.598 303.095C133.286 303.955 138.888 303.456 141.079 303.206C141.662 303.151 142.133 302.679 142.244 302.096C142.3 301.68 142.355 301.125 142.327 300.543C139.554 300.792 133.037 301.292 130.43 300.654C127.102 299.849 126.298 296.437 124.634 295.493C123.386 294.8 122.581 293.884 122.249 293.468C122.193 294.051 122.11 294.55 122.082 294.911C121.971 295.41 122.221 295.854 122.637 296.048Z" fill="#3B2645"/>
<path d="M141.079 296.825C140.414 295.882 139.443 293.857 138.445 291.554C137.862 293.635 131.206 292.664 130.347 292.442C129.487 292.22 126.159 283.398 126.159 283.398C126.159 283.398 124.107 283.536 123.718 282.593C123.663 283.065 123.607 283.536 123.524 283.952C123.191 285.728 122.581 290.583 122.249 293.468C122.581 293.884 123.386 294.772 124.634 295.494C126.325 296.437 127.102 299.849 130.43 300.654C133.037 301.292 139.554 300.793 142.327 300.543C142.244 299.433 141.967 298.101 141.079 296.825Z" fill="#AB8DA8"/>
<path d="M130.319 292.442C131.179 292.664 137.835 293.635 138.417 291.554C136.309 286.727 134.007 280.651 134.007 280.651C134.007 280.651 132.482 278.986 129.154 279.708C125.826 280.429 126.103 283.397 126.103 283.397C126.103 283.397 129.459 292.248 130.319 292.442Z" fill="#3B2645"/>
<path d="M124.838 222.789C127.471 222.38 129.524 221.52 129.423 220.869C129.322 220.218 127.105 220.022 124.471 220.432C121.838 220.841 119.785 221.701 119.886 222.352C119.988 223.003 122.204 223.199 124.838 222.789Z" fill="#E0855C"/>
<path d="M62.8444 275.019C62.8721 268.888 63.2049 259.982 63.5932 251.687C64.2865 236.955 67.5035 223.999 67.5035 222.418C67.5035 216.148 68.2246 196.7 68.6128 197.172L91.8254 202.804C91.1598 204.718 84.8089 220.809 84.3375 228.244C83.866 235.679 73.7157 272.716 73.2443 275.463C73.1888 275.824 73.1333 276.184 73.0779 276.6C70.776 276.767 66.3665 276.85 62.8444 275.019Z" fill="#FFEDE5"/>
<path d="M70.3046 284.119C70.3046 284.119 70.6929 281.15 67.3926 280.318C64.0924 279.486 62.5116 281.095 62.5116 281.095C62.7612 279.791 62.8444 277.655 62.8444 274.991C66.3665 276.822 70.7761 276.739 73.0779 276.545C72.8006 278.681 72.6342 281.261 72.8006 283.398C72.3291 284.341 70.3046 284.119 70.3046 284.119Z" fill="white"/>
<path d="M73.3552 296.881C69.7222 298.629 70.6374 302.818 66.1723 303.678C62.4561 304.399 56.8818 303.733 54.6908 303.4C54.1085 303.317 53.637 302.846 53.5815 302.235C53.5261 301.819 53.4983 301.264 53.5538 300.682C56.3271 301.015 62.8166 301.736 65.4513 301.209C68.807 300.515 69.7222 297.13 71.4139 296.243C72.6896 295.577 73.5216 294.717 73.8821 294.301C73.9376 294.883 73.9653 295.383 73.9931 295.771C74.0485 296.243 73.7712 296.687 73.3552 296.881Z" fill="#3B2645"/>
<path d="M54.9126 297.047C55.606 296.132 56.6598 294.134 57.7414 291.859C58.2683 293.968 64.9243 293.219 65.8117 293.024C66.6992 292.83 70.3045 284.119 70.3045 284.119C70.3045 284.119 72.329 284.341 72.7727 283.397C72.8005 283.869 72.8559 284.341 72.9114 284.757C73.1887 286.56 73.6324 291.415 73.882 294.301C73.5215 294.717 72.6895 295.577 71.4138 296.243C69.6944 297.13 68.8069 300.487 65.4512 301.209C62.8443 301.763 56.327 301.042 53.5537 300.681C53.6369 299.599 53.9974 298.268 54.9126 297.047Z" fill="#AB8DA8"/>
<path d="M65.7841 293.024C64.8966 293.219 58.2407 293.968 57.7137 291.859C59.9879 287.087 62.4838 281.095 62.4838 281.095C62.4838 281.095 64.0646 279.486 67.3648 280.318C70.6651 281.15 70.2768 284.119 70.2768 284.119C70.2768 284.119 66.6715 292.83 65.7841 293.024Z" fill="#3B2645"/>
<path d="M78.5755 224.787C78.6985 224.14 76.6757 223.212 74.0575 222.714C71.4393 222.216 69.2172 222.338 69.0942 222.985C68.9713 223.632 70.994 224.56 73.6122 225.058C76.2304 225.556 78.4525 225.435 78.5755 224.787Z" fill="#E0855C"/>
<path d="M130.43 147.012C130.43 147.012 135.089 176.531 133.48 199.891C133.48 199.891 124.467 206.632 103.418 202.609L100.173 184.049L94.8482 202.72C94.8482 202.72 73.0223 204.024 67.1707 195.563C67.1707 195.563 70.3045 160.551 76.9327 146.402C83.5609 132.253 128.267 135.415 130.43 147.012Z" fill="#3B2645"/>
<path d="M100.173 184.049C100.173 184.049 97.5661 181.746 97.2887 181.525C97.0114 181.303 94.5986 171.759 94.5986 171.759L97.261 194.259L100.173 184.049Z" fill="#3B2645"/>
<path d="M112.098 200.39C107.411 200.39 104.028 200.029 103.945 200.029C103.862 200.029 103.806 199.946 103.834 199.863C103.834 199.78 103.917 199.724 104 199.752C104.194 199.78 122.803 201.749 133.647 196.284C133.702 196.256 133.786 196.284 133.841 196.339C133.869 196.395 133.841 196.478 133.786 196.534C127.435 199.724 118.532 200.39 112.098 200.39Z" fill="white"/>
<path d="M95.7081 199.835C95.6804 199.835 95.7081 199.835 95.7081 199.835C75.5184 198.143 67.5036 192.511 67.4204 192.455C67.3649 192.4 67.3372 192.317 67.3927 192.261C67.4481 192.206 67.5313 192.178 67.5868 192.233C67.67 192.289 75.6294 197.865 95.7358 199.558C95.819 199.558 95.8745 199.641 95.8745 199.696C95.819 199.779 95.7636 199.835 95.7081 199.835Z" fill="white"/>
<path d="M116.896 59.8706C116.896 59.8706 112.625 68.4432 102.835 69.0813C93.0456 69.7194 89.2462 62.6172 89.2462 62.6172L73.6324 68.7207C73.6324 68.7207 76.4612 78.7637 74.6586 87.4473C74.6586 87.4473 78.7908 102.207 78.7908 104.065C78.7908 105.924 82.2574 113.803 82.4793 115.662C82.7012 117.521 76.9327 146.429 76.9327 146.429C76.9327 146.429 104.499 154.53 110.906 154.253C117.312 153.975 130.43 147.012 130.43 147.012C130.43 147.012 129.126 122.792 130.43 116.827C131.733 110.863 136.614 94.9102 136.614 94.9102C136.614 94.9102 132.482 74.0196 133.647 65.6967L116.896 59.8706Z" fill="#EE87E4"/>
<path d="M133.453 94.5773C133.314 94.5773 133.203 94.4941 133.175 94.3554C130.735 84.3679 130.263 64.8089 130.263 64.6147C130.263 64.4483 130.374 64.3373 130.541 64.3373C130.707 64.3373 130.818 64.4483 130.818 64.6147C130.818 64.8089 131.29 84.3124 133.73 94.2444C133.758 94.3832 133.675 94.5496 133.536 94.5773C133.48 94.5773 133.453 94.5773 133.453 94.5773Z" fill="#472938"/>
<path d="M75.5737 90.9985C75.5183 90.9985 75.4351 90.9708 75.3796 90.943C75.2687 90.8321 75.2409 90.6656 75.3519 90.5546C80.2329 85.0337 75.7401 68.0272 75.6847 67.8607C75.6569 67.722 75.7401 67.5555 75.8788 67.5278C76.0175 67.5 76.1839 67.5833 76.2116 67.722C76.4057 68.4433 80.8153 85.1725 75.7401 90.9153C75.7124 90.9708 75.6292 90.9985 75.5737 90.9985Z" fill="#472938"/>
<path d="M101.338 72.1053C91.6312 72.1053 86.6115 63.7824 86.5561 63.6714C86.4729 63.5327 86.5283 63.3662 86.667 63.283C86.8057 63.1998 86.9721 63.2552 87.0553 63.394C87.1107 63.4772 92.3523 72.1885 102.475 71.495C110.684 70.9401 115.121 65.6689 116.591 63.9211C117.09 63.3107 117.229 63.172 117.451 63.2275C117.562 63.2552 117.645 63.3385 117.673 63.4494C117.728 63.5882 117.645 63.7546 117.478 63.7824C117.451 63.7824 117.451 63.7824 117.423 63.7824C117.34 63.8656 117.173 64.0875 117.007 64.2817C115.509 66.0573 110.961 71.4672 102.503 72.0498C102.114 72.1053 101.726 72.1053 101.338 72.1053Z" fill="#472938"/>
<path d="M133.647 65.6967C133.647 65.6967 143.742 65.1418 145.877 81.0664C145.877 81.0664 156.249 100.764 157.442 107.062C158.634 113.359 156.499 122.237 153.892 126.787C151.285 131.337 142.605 146.041 141.024 148.288C139.443 150.535 139.693 151.118 135.56 151.423C135.56 151.423 132.51 151.978 131.9 152.255C131.289 152.533 127.601 154.503 126.852 154.225C126.103 153.975 125.382 152.977 125.521 152.783C125.687 152.561 129.542 150.48 129.542 150.48C129.542 150.48 123.33 151.534 122.748 151.506C122.165 151.479 121.306 150.175 121.306 150.175C121.306 150.175 119.281 149.259 119.031 148.538C118.782 147.816 121 146.374 121 146.374C121 146.374 119.669 146.041 119.198 145.347C118.726 144.654 126.963 140.243 127.961 140.298C128.96 140.354 135.727 141.214 135.727 141.214C135.727 141.214 144.712 112.305 144.795 110.502C144.879 108.699 137.668 101.18 136.559 94.9102C136.614 94.9102 131.983 73.1041 133.647 65.6967Z" fill="#FFEDE5"/>
<path d="M120.917 150.258C120.806 150.258 120.723 150.202 120.668 150.091C120.612 149.953 120.668 149.786 120.806 149.731L127.074 146.873C127.213 146.818 127.379 146.873 127.435 147.012C127.49 147.151 127.435 147.317 127.296 147.373L121.028 150.23C121 150.258 120.973 150.258 120.917 150.258Z" fill="#472938"/>
<path d="M121.056 146.679C120.945 146.679 120.862 146.624 120.806 146.54C120.723 146.402 120.779 146.235 120.917 146.152L127.046 142.878C127.185 142.795 127.351 142.851 127.435 142.989C127.518 143.128 127.462 143.294 127.324 143.378L121.195 146.651C121.139 146.651 121.084 146.679 121.056 146.679Z" fill="#472938"/>
</svg>
