<svg width="36" height="39" viewBox="0 0 36 39" fill="none" xmlns="http://www.w3.org/2000/svg">
<g clip-path="url(#clip0_1527_808)">
<path d="M33.2933 10.3027H13.5327C13.0534 10.3027 12.5937 10.4975 12.2547 10.8443C11.9158 11.1911 11.7253 11.6614 11.7253 12.1518V32.3679C11.7253 32.8583 11.9158 33.3287 12.2547 33.6754C12.5937 34.0222 13.0534 34.217 13.5327 34.217H27.2045L32.7043 38.8499V34.217H33.2789C33.7583 34.217 34.218 34.0222 34.557 33.6754C34.8959 33.3287 35.0863 32.8583 35.0863 32.3679V12.1518C35.0863 11.6639 34.8979 11.1958 34.562 10.8495C34.2262 10.5031 33.7702 10.3066 33.2933 10.3027Z" fill="white"/>
<path d="M13.7511 10.3028H33.3767C33.8339 10.3028 34.2724 10.4886 34.5958 10.8194C34.9191 11.1502 35.1007 11.5988 35.1007 12.0666V17.7843C35.1007 17.8022 35.0938 17.8194 35.0814 17.8321C35.069 17.8448 35.0522 17.8519 35.0346 17.8519H11.7915C11.7739 17.8519 11.7571 17.8448 11.7447 17.8321C11.7323 17.8194 11.7254 17.8022 11.7254 17.7843V12.3723C11.7238 12.0999 11.7752 11.8298 11.8765 11.5778C11.9778 11.3258 12.127 11.0969 12.3155 10.9044C12.5039 10.7119 12.7279 10.5596 12.9743 10.4563C13.2208 10.353 13.4848 10.3008 13.7511 10.3028Z" fill="#FF725E"/>
<path d="M21.8081 21.415V29.5462H19.9691V22.926H18.3801V21.415H21.8081Z" fill="#263238"/>
<path d="M29.423 21.415V22.635L26.4633 29.5462H24.4519L27.3024 22.9495H24.6789V24.2812H23.0439V21.415H29.423Z" fill="#263238"/>
<path d="M26.6789 14.5803C26.6789 14.6215 25.0726 14.6568 23.0928 14.6568C21.113 14.6568 19.5039 14.6274 19.5039 14.5803C19.5039 14.5333 21.1102 14.5039 23.0928 14.5039C25.0755 14.5039 26.6789 14.5451 26.6789 14.5803Z" fill="#263238"/>
<path d="M33.2935 10.3028C33.2935 10.3028 33.3337 10.3028 33.4171 10.3028C33.5375 10.308 33.657 10.3267 33.7734 10.3586C34.0026 10.4197 34.2178 10.5265 34.4066 10.6728C34.5954 10.819 34.7542 11.002 34.8739 11.2111C35.05 11.5191 35.1377 11.8716 35.1268 12.2282C35.1268 12.6133 35.1268 13.0367 35.1268 13.4894C35.1268 14.4007 35.1268 15.4442 35.1268 16.6113C35.1268 18.963 35.1268 21.7822 35.1268 25.0217C35.1268 26.6415 35.1268 28.3641 35.1268 30.175C35.1268 30.6306 35.1268 31.0892 35.1268 31.5537V32.2533C35.1352 32.4962 35.1032 32.7387 35.0319 32.9706C34.877 33.449 34.5434 33.8454 34.1038 34.073C33.8988 34.1821 33.6756 34.251 33.4458 34.2758C33.1958 34.2758 32.9631 34.2758 32.7188 34.2758L32.7849 34.2082C32.7849 35.678 32.7849 37.2331 32.7849 38.8382V38.991L32.67 38.894L27.1587 34.2758L27.2047 34.2934H13.51C13.1902 34.2892 12.8768 34.2017 12.5993 34.0392C12.3218 33.8766 12.0893 33.6444 11.9238 33.3645C11.815 33.183 11.7364 32.9844 11.6911 32.7766C11.6565 32.5679 11.643 32.3561 11.6508 32.1445V28.467C11.6508 25.251 11.6508 22.1496 11.6508 19.1953C11.6508 17.7156 11.6508 16.2762 11.6508 14.8769C11.6508 14.1772 11.6508 13.4913 11.6508 12.8191C11.638 12.4787 11.6495 12.1378 11.6853 11.799C11.7508 11.4604 11.9036 11.1457 12.1278 10.8877C12.3481 10.6358 12.6296 10.4482 12.9439 10.3439C13.2525 10.2579 13.5731 10.226 13.8921 10.2498H19.1562L29.5006 10.2763H32.3137H33.0435C33.2102 10.2763 33.2935 10.2763 33.2935 10.2763H33.0435H32.3137H29.5006L19.1562 10.2998H15.7282H13.9065C13.6011 10.2769 13.2942 10.3067 12.9985 10.388C12.7046 10.4877 12.4412 10.664 12.2342 10.8995C12.0254 11.14 11.8835 11.4334 11.8233 11.7491C11.7903 12.0801 11.7807 12.4132 11.7945 12.7456V14.8034C11.7945 16.2027 11.7945 17.6421 11.7945 19.1218C11.7945 22.0615 11.7945 25.1775 11.7945 28.3935V32.1298C11.7872 32.3266 11.7998 32.5236 11.8319 32.7178C11.8722 32.9128 11.9441 33.0996 12.0445 33.2704C12.2483 33.6159 12.5617 33.8794 12.9324 34.0171C13.319 34.1278 13.7221 34.1656 14.122 34.1288H27.2248L27.2449 34.1465L32.7418 38.7823L32.6269 38.8352C32.6269 37.2302 32.6269 35.6663 32.6269 34.2053V34.1376H32.6958C32.9343 34.1376 33.1814 34.1376 33.4142 34.1376C33.7567 34.1112 34.0839 33.9818 34.3548 33.7658C34.6257 33.5499 34.8283 33.2568 34.9371 32.9236C35.0068 32.7056 35.0379 32.4766 35.0291 32.2474V31.5478C35.0291 31.0833 35.0291 30.6247 35.0291 30.1691C35.0291 28.3582 35.0291 26.6415 35.0291 25.0158C35.0291 21.7822 35.0291 18.9454 35.0434 16.6054C35.0434 15.4295 35.0434 14.3948 35.0434 13.4835C35.0434 12.5722 35.1584 11.7696 34.8078 11.2287C34.5755 10.8107 34.1914 10.5033 33.7389 10.3733C33.5928 10.3363 33.4437 10.3126 33.2935 10.3028Z" fill="#263238"/>
<path d="M26.8999 7.95996H26.8511C26.4448 7.95996 26.1155 8.29689 26.1155 8.71252V12.6076C26.1155 13.0232 26.4448 13.3601 26.8511 13.3601H26.8999C27.3062 13.3601 27.6355 13.0232 27.6355 12.6076V8.71252C27.6355 8.29689 27.3062 7.95996 26.8999 7.95996Z" fill="#E0E0E0"/>
<path d="M26.9025 13.3598C27.0589 13.3373 27.2072 13.2746 27.3335 13.1775C27.4745 13.0592 27.5652 12.8895 27.5864 12.7042C27.5864 12.4896 27.5864 12.2221 27.5864 11.9399C27.5864 11.352 27.5864 10.6817 27.5864 9.93503C27.5864 9.55582 27.5864 9.15896 27.5864 8.75916C27.5911 8.66282 27.5757 8.56655 27.5414 8.47671C27.507 8.38688 27.4545 8.30552 27.3871 8.23801C27.3198 8.17049 27.2392 8.11837 27.1507 8.08507C27.0622 8.05176 26.9678 8.03805 26.8738 8.04482C26.779 8.04461 26.6853 8.06523 26.5991 8.1053C26.5128 8.14537 26.436 8.20394 26.3738 8.27705C26.3134 8.35011 26.268 8.43489 26.2403 8.52632C26.2127 8.61774 26.2033 8.71393 26.2129 8.80914C26.2129 9.22069 26.2129 9.61755 26.2129 9.98501C26.2129 10.7346 26.2129 11.4137 26.2129 11.9928C26.2129 12.1339 26.2129 12.2691 26.2129 12.3985C26.2025 12.5158 26.2025 12.6339 26.2129 12.7512C26.2478 12.9353 26.3507 13.0985 26.5002 13.2069C26.6338 13.2951 26.787 13.3477 26.9456 13.3598C26.9039 13.3686 26.8609 13.3686 26.8192 13.3598C26.6945 13.3536 26.5736 13.3141 26.4686 13.2451C26.2989 13.1332 26.1784 12.9582 26.1324 12.7571C26.114 12.6346 26.1073 12.5106 26.1123 12.3867C26.1123 12.2574 26.1123 12.1222 26.1123 11.9811C26.1123 11.3931 26.1123 10.7229 26.0951 9.97325C26.0951 9.59697 26.0951 9.20011 26.0951 8.79738C26.0849 8.68403 26.0969 8.56974 26.1305 8.46121C26.164 8.35269 26.2184 8.2521 26.2904 8.16535C26.3656 8.074 26.4593 8.00042 26.5649 7.94967C26.6706 7.89892 26.7858 7.87221 26.9025 7.87138C27.0178 7.86492 27.1331 7.8833 27.241 7.92533C27.3489 7.96736 27.447 8.03211 27.5289 8.11537C27.5969 8.20443 27.6469 8.30644 27.676 8.41544C27.7051 8.52445 27.7127 8.63829 27.6984 8.75034C27.6984 9.15896 27.6984 9.55582 27.6984 9.92621C27.6984 10.6729 27.6984 11.352 27.6812 11.9311C27.6812 12.225 27.6812 12.469 27.6611 12.7072C27.6467 12.8083 27.6126 12.9055 27.5608 12.9928C27.5089 13.0802 27.4404 13.156 27.3594 13.2157C27.2607 13.2925 27.1435 13.3402 27.0203 13.3539C26.9818 13.3637 26.9418 13.3657 26.9025 13.3598Z" fill="#263238"/>
<path d="M19.7654 7.95996H19.7166C19.3103 7.95996 18.981 8.29689 18.981 8.71252V12.6076C18.981 13.0232 19.3103 13.3601 19.7166 13.3601H19.7654C20.1717 13.3601 20.501 13.0232 20.501 12.6076V8.71252C20.501 8.29689 20.1717 7.95996 19.7654 7.95996Z" fill="#E0E0E0"/>
<path d="M19.7651 13.3599C19.9226 13.3381 20.072 13.2754 20.1989 13.1776C20.34 13.0593 20.4306 12.8896 20.4518 12.7043C20.4518 12.4897 20.4518 12.2222 20.4518 11.94C20.4518 11.3521 20.4518 10.6818 20.4346 9.93515C20.4346 9.55593 20.4346 9.15908 20.4346 8.75928C20.4393 8.66294 20.4239 8.56667 20.3896 8.47683C20.3553 8.387 20.3027 8.30564 20.2353 8.23813C20.168 8.17061 20.0874 8.11849 19.9989 8.08519C19.9104 8.05188 19.816 8.03817 19.722 8.04494C19.6272 8.04434 19.5334 8.06479 19.447 8.10488C19.3607 8.14498 19.2839 8.20376 19.222 8.27717C19.1612 8.35009 19.1154 8.43477 19.0872 8.52618C19.0591 8.61759 19.0492 8.71386 19.0582 8.80926C19.0582 9.22081 19.0582 9.61767 19.0582 9.98513C19.0582 10.7347 19.0582 11.4138 19.0409 11.9929C19.0409 12.134 19.0409 12.2693 19.0409 12.3986C19.0304 12.5159 19.0304 12.634 19.0409 12.7514C19.0748 12.9359 19.1779 13.0994 19.3283 13.207C19.4608 13.2954 19.613 13.348 19.7708 13.3599C19.7708 13.3599 19.7306 13.3599 19.6444 13.3599C19.5206 13.3536 19.4007 13.3141 19.2967 13.2452C19.1262 13.1342 19.0054 12.9589 18.9605 12.7572C18.9426 12.6347 18.9349 12.5108 18.9375 12.3868C18.9375 12.2575 18.9375 12.1223 18.9375 11.9812C18.9375 11.3932 18.9375 10.723 18.9375 9.97337C18.9375 9.59709 18.9375 9.20023 18.9375 8.7975C18.9206 8.56844 18.9917 8.34169 19.1358 8.16547C19.2108 8.07397 19.3045 8.00028 19.4101 7.94952C19.5158 7.89875 19.6311 7.87213 19.7478 7.8715C19.8627 7.86471 19.9777 7.88296 20.0852 7.92502C20.1927 7.96708 20.2902 8.032 20.3714 8.11549C20.45 8.19748 20.5115 8.29505 20.552 8.40222C20.5926 8.50938 20.6112 8.62388 20.607 8.7387C20.607 9.14732 20.607 9.54418 20.607 9.91457C20.607 10.6613 20.607 11.3403 20.607 11.9194C20.607 12.2134 20.607 12.4574 20.5869 12.6955C20.5593 12.8968 20.4563 13.0792 20.2995 13.2041C20.2006 13.2803 20.0835 13.328 19.9604 13.3422C19.8988 13.3692 19.8304 13.3753 19.7651 13.3599Z" fill="#263238"/>
<g opacity="0.3">
<path opacity="0.3" d="M18.1096 10.5293C18.2054 11.4867 18.1158 12.4541 17.846 13.3762C17.5763 14.2982 17.1315 15.1568 16.5372 15.9029C15.943 16.649 15.2108 17.268 14.3826 17.7245C13.5544 18.181 12.6464 18.4661 11.7104 18.5634L11.9978 14.5449L15.558 10.5852L18.1096 10.5293Z" fill="black"/>
</g>
<path d="M12.4734 16.8952C16.0619 15.9696 18.2376 12.2432 17.3329 8.57197C16.4282 4.90075 12.7857 2.67495 9.19723 3.60051C5.60875 4.52606 3.43311 8.25248 4.3378 11.9237C5.2425 15.5949 8.88494 17.8207 12.4734 16.8952Z" fill="white"/>
<path d="M10.8297 17.8407C9.40652 17.8397 8.01358 17.4202 6.81689 16.6321C5.62021 15.8439 4.67026 14.7204 4.08023 13.3954C3.4902 12.0704 3.28499 10.5998 3.48904 9.15881C3.69309 7.71783 4.2978 6.36726 5.23111 5.26803C6.16442 4.1688 7.38698 3.36728 8.75308 2.95897C10.1192 2.55066 11.5712 2.55279 12.9362 2.96511C14.3011 3.37742 15.5214 4.18253 16.4517 5.28449C17.3819 6.38646 17.9828 7.7388 18.1828 9.18037C18.4568 11.1735 17.947 13.1965 16.7652 14.8056C15.5834 16.4148 13.826 17.4787 11.8785 17.7642C11.5312 17.8157 11.1807 17.8412 10.8297 17.8407ZM10.847 4.13295C10.5586 4.13262 10.2705 4.15325 9.98494 4.19469C8.81521 4.36657 7.72154 4.88935 6.84215 5.69696C5.96276 6.50458 5.33713 7.56076 5.04432 8.73204C4.75151 9.90332 4.80467 11.1371 5.19708 12.2775C5.58948 13.4179 6.30353 14.4136 7.24896 15.139C8.1944 15.8643 9.32879 16.2866 10.5088 16.3525C11.6887 16.4184 12.8613 16.125 13.8784 15.5094C14.8954 14.8937 15.7112 13.9834 16.2226 12.8935C16.7341 11.8036 16.9183 10.5831 16.7519 9.38615C16.5494 7.93051 15.8411 6.59825 14.7566 5.63346C13.6721 4.66867 12.2841 4.13596 10.847 4.13295Z" fill="#455A64"/>
<path d="M10.8466 4.13237C10.879 4.12774 10.9119 4.12774 10.9443 4.13237C11.0075 4.13237 11.1023 4.13237 11.2316 4.13237C11.5979 4.14931 11.9616 4.20247 12.3178 4.29111C12.8825 4.4339 13.4237 4.66071 13.924 4.9643C14.5907 5.36626 15.1759 5.89513 15.6481 6.52232C16.2186 7.2848 16.6055 8.17407 16.7774 9.11806C16.8212 9.3769 16.8519 9.63791 16.8693 9.90001C16.8765 10.0342 16.8765 10.1686 16.8693 10.3027C16.8693 10.438 16.8693 10.5761 16.8693 10.7114C16.8236 11.2767 16.7077 11.8339 16.5245 12.3693C16.3116 12.9259 16.0285 13.4516 15.6826 13.9332C15.3152 14.4276 14.883 14.8678 14.3982 15.2414C13.3585 16.0181 12.1038 16.4352 10.8165 16.432C9.52916 16.4289 8.27641 16.0056 7.24045 15.2238C6.75484 14.8499 6.32254 14.4086 5.95602 13.9127C5.61788 13.4272 5.34352 12.8985 5.13997 12.3399C4.95859 11.8053 4.84465 11.2491 4.8009 10.6849C4.72452 9.54118 4.96093 8.39828 5.48367 7.38426C6.0064 6.37024 6.7948 5.52517 7.76054 4.94372C8.44698 4.53408 9.20747 4.27107 9.99607 4.17058L10.4587 4.14413L10.746 4.12943C10.7785 4.12613 10.8112 4.12613 10.8437 4.12943H10.746L10.4587 4.15589L9.99894 4.19704C9.81791 4.22644 9.6139 4.26759 9.38403 4.32639C8.08114 4.66715 6.93013 5.4508 6.11981 6.54878C5.56199 7.29857 5.18316 8.17134 5.01354 9.09748C4.91896 9.61082 4.89095 10.1347 4.93021 10.6555C4.97416 11.2079 5.08714 11.7523 5.2664 12.2753C5.46646 12.8197 5.73603 13.3347 6.06809 13.8068C6.42733 14.29 6.84986 14.7203 7.32378 15.0856C8.33513 15.8463 9.55688 16.2581 10.8122 16.2613C12.0675 16.2645 13.2912 15.8589 14.3062 15.1032C14.7816 14.7398 15.2052 14.3104 15.5648 13.8274C15.8986 13.3565 16.1701 12.8425 16.3722 12.2988C16.5555 11.7775 16.6714 11.234 16.717 10.682C16.7343 10.5497 16.717 10.4145 16.717 10.2822C16.7242 10.151 16.7242 10.0195 16.717 9.88825C16.6912 9.62662 16.6797 9.37087 16.6308 9.121C16.4667 8.19395 16.0928 7.31908 15.5389 6.56642C14.7275 5.47068 13.5817 4.68338 12.2833 4.32933C11.931 4.23528 11.5715 4.17234 11.2087 4.14119C10.9788 4.13825 10.8466 4.13825 10.8466 4.13237Z" fill="#263238"/>
<path d="M10.8296 17.84C10.8296 17.84 10.8699 17.84 10.9503 17.84L11.3009 17.8135C11.456 17.7988 11.6457 17.7812 11.8756 17.7459L12.6428 17.5842C13.3316 17.3934 13.9925 17.1097 14.6082 16.7405C15.4149 16.2364 16.1233 15.5835 16.6972 14.815C17.3839 13.8777 17.8509 12.7915 18.062 11.6402C18.0953 11.4852 18.1183 11.328 18.131 11.1698C18.131 11.0111 18.1655 10.8524 18.1799 10.6877C18.1942 10.5231 18.1799 10.3644 18.1799 10.1968V9.94987L18.1569 9.7C18.1124 9.01217 17.9731 8.33423 17.7431 7.68632C17.2266 6.23834 16.2886 4.98717 15.0555 4.10148C13.8224 3.21579 12.3535 2.73815 10.8469 2.73297C9.33591 2.72787 7.8602 3.19965 6.62092 4.08398C5.38165 4.96832 4.43914 6.22217 3.9219 7.67456C3.46878 8.94323 3.36248 10.3143 3.61444 11.6402C3.72133 12.2377 3.89787 12.82 4.14028 13.3746C4.25724 13.6343 4.38769 13.8875 4.53107 14.133L4.7437 14.4887L4.98219 14.815C5.54927 15.5843 6.25552 16.235 7.06256 16.7317C7.67621 17.105 8.33771 17.3889 9.02798 17.5754C9.27914 17.6452 9.53445 17.6982 9.79232 17.7341C9.9823 17.769 10.1742 17.7916 10.367 17.8017L10.7204 17.8282C10.7606 17.825 10.801 17.825 10.8411 17.8282H10.7204H10.367C10.1744 17.8239 9.9823 17.8052 9.79232 17.7724C9.53234 17.7435 9.27489 17.6944 9.02224 17.6254C8.32254 17.4483 7.65108 17.1702 7.02808 16.7993C6.20033 16.304 5.47354 15.6503 4.88737 14.8738L4.646 14.5446L4.42762 14.1859C4.27997 13.9328 4.14569 13.6718 4.02534 13.404C3.77713 12.8402 3.59578 12.2481 3.48514 11.6402C3.2285 10.2943 3.33377 8.90234 3.78972 7.61283C4.31645 6.13423 5.27567 4.85755 6.53687 3.95652C7.79806 3.05549 9.29997 2.57386 10.8382 2.57717C12.3772 2.57847 13.8784 3.06445 15.1379 3.96907C16.3974 4.87369 17.3542 6.15309 17.8781 7.63341C18.1119 8.29558 18.2522 8.98848 18.2948 9.69118L18.3149 9.94399V10.1968C18.3149 10.3644 18.3149 10.5319 18.3149 10.6966C18.3149 10.8612 18.2689 11.0199 18.2689 11.1816C18.2567 11.3429 18.2327 11.5031 18.1971 11.6608C17.972 12.8298 17.4852 13.9296 16.7748 14.8738C16.1895 15.6491 15.4672 16.3052 14.6455 16.8081C14.0197 17.1738 13.3491 17.4526 12.6514 17.6371L11.8756 17.7841C11.685 17.8119 11.4932 17.8295 11.3009 17.837C11.1457 17.837 11.0135 17.837 10.9474 17.837L10.8296 17.84Z" fill="#263238"/>
<path d="M14.2357 0.799223L13.6235 1.80371L17.5607 4.31525L18.1729 3.31077L14.2357 0.799223Z" fill="#455A64"/>
<path d="M17.5532 4.3442C17.5532 4.3442 17.6049 4.23837 17.7055 4.05023L18.1279 3.30943L18.1423 3.37116C17.2515 2.82144 15.8119 1.93954 14.1999 0.895957L14.3034 0.87244L14.2832 0.904776L14.2229 0.998846L14.1453 1.12819L13.9902 1.381L13.7028 1.87487L13.6712 1.76904C14.7717 2.48044 15.7343 3.11541 16.4297 3.57988L17.2515 4.1296C17.444 4.26189 17.5388 4.33538 17.5388 4.3442C17.4379 4.29943 17.3416 4.24427 17.2515 4.17958L16.4297 3.67689C15.7228 3.24182 14.7229 2.61861 13.5879 1.89839L13.5247 1.85723L13.5649 1.7955L13.8522 1.29869L14.0189 1.05764L14.0965 0.931233L14.1367 0.866561L14.1568 0.822465V0.804827L14.2775 0.763672C15.8924 1.7955 17.3176 2.7215 18.1911 3.30061L18.2285 3.32707L18.2055 3.36529C17.9986 3.68571 17.8348 3.93558 17.7256 4.1002C17.676 4.18708 17.6183 4.2688 17.5532 4.3442Z" fill="#263238"/>
<path d="M4.77119 2.44908L1.55225 6.19629L2.41991 6.9764L5.63886 3.2292L4.77119 2.44908Z" fill="#455A64"/>
<path d="M2.42149 6.97549C2.42149 6.97549 2.50769 6.85791 2.66286 6.66389L3.32662 5.85548C3.9013 5.17641 4.67713 4.23865 5.57939 3.18037V3.2862L4.71736 2.50719H4.82368L4.79494 2.52776L4.76333 2.57186L4.70299 2.64241L4.57943 2.78645L4.33519 3.08042L3.86395 3.61838L2.98181 4.63257L1.58532 6.22588V6.1612C1.83531 6.39932 2.03932 6.59627 2.20023 6.74914C2.27941 6.82086 2.35426 6.89743 2.42436 6.97843C2.33671 6.92443 2.25401 6.86244 2.17725 6.79323C2.02496 6.66683 1.79795 6.47869 1.51349 6.22882L1.479 6.19942L1.50774 6.16414L2.86974 4.54438L3.73177 3.51843L4.226 2.96871C4.30359 2.87465 4.38691 2.78058 4.46737 2.67475L4.59093 2.5307L4.65127 2.45721L4.68288 2.42193L4.70012 2.4043H4.80644C5.09378 2.67475 5.38112 2.93638 5.66846 3.18625L5.72306 3.23623L5.67421 3.29208C4.76333 4.35624 3.94153 5.29106 3.35535 5.94955L2.6686 6.7168C2.59187 6.80849 2.50932 6.89491 2.42149 6.97549Z" fill="#263238"/>
<path d="M7.91284 10.8465L8.48465 9.73238L10.5277 10.679L12.7258 6.58398L13.7545 7.18662L10.907 12.3516L7.91284 10.8465Z" fill="#455A64"/>
<path d="M10.9099 12.3605L7.9043 10.8495L8.47898 9.72947L10.5162 10.6702L12.723 6.5752L13.7575 7.18077L10.9099 12.3605ZM7.92441 10.8436L10.907 12.3428L13.7489 7.18959L12.7317 6.60165L10.5306 10.6878L8.4991 9.74416L7.92441 10.8436Z" fill="#263238"/>
<path d="M6.84355 18.71C6.73494 18.6759 6.62999 18.6306 6.53035 18.5747C6.41021 18.5176 6.29318 18.4538 6.17979 18.3837C6.02541 18.2938 5.87579 18.1957 5.73153 18.0897C5.34991 17.8281 4.99129 17.533 4.65974 17.2078C4.25442 16.8102 3.88689 16.3741 3.56209 15.9055C3.248 15.4361 2.97676 14.9382 2.75179 14.418C2.56945 13.9884 2.4224 13.5439 2.31215 13.0893C2.26798 12.9149 2.2325 12.7383 2.20584 12.5602C2.17924 12.4272 2.16101 12.2927 2.15124 12.1574C2.13401 12.0427 2.12823 11.9265 2.134 11.8105C2.16273 11.8105 2.20871 12.2985 2.42134 13.0599C2.54302 13.5054 2.69768 13.9407 2.88396 14.3622C3.11684 14.875 3.39175 15.3667 3.70577 15.832C4.02213 16.2919 4.37586 16.7236 4.76319 17.1225C5.08755 17.4419 5.43423 17.7367 5.80049 18.0044C6.42115 18.4719 6.85792 18.6953 6.84355 18.71Z" fill="#263238"/>
<path d="M3.45326 17.1434C3.26958 16.9767 3.10823 16.786 2.9734 16.576C2.62379 16.0894 2.31887 15.5708 2.06252 15.0268C1.80651 14.4815 1.60158 13.9126 1.45048 13.3277C1.37234 13.0903 1.32689 12.843 1.31543 12.5928C1.40706 12.8229 1.48479 13.0585 1.54818 13.2983C1.72632 13.866 1.94135 14.4209 2.19183 14.9592C2.44632 15.4959 2.73426 16.0154 3.05385 16.5143C3.20152 16.714 3.335 16.9242 3.45326 17.1434Z" fill="#263238"/>
</g>
<defs>
<clipPath id="clip0_1527_808">
<rect width="34.4754" height="38.2364" fill="white" transform="translate(0.688477 0.763672)"/>
</clipPath>
</defs>
</svg>
